<svg width="25" height="22" viewBox="0 0 25 22" fill="none" xmlns="http://www.w3.org/2000/svg">
<path d="M0.68734 7.80915H24.312C24.4094 7.80915 24.4512 7.76034 24.4206 7.67476C22.8218 3.23264 18.0901 0 12.5003 0C6.91052 0 2.17782 3.23264 0.580078 7.67476C0.548492 7.75967 0.590936 7.80915 0.68734 7.80915ZM0.106282 10.876C0.546189 10.9094 8.62869 10.4982 12.5003 10.5036C16.3739 10.4982 24.4541 10.9094 24.894 10.876C24.9549 10.8713 25.0007 10.8399 25 10.7944C24.9934 10.4594 24.9671 10.0904 24.9191 9.72399C24.9079 9.64042 24.8516 9.61033 24.7779 9.61301C24.414 9.62772 16.4555 10.2007 12.5003 10.1847C8.54545 10.2014 0.587646 9.62772 0.22177 9.61301C0.148726 9.61033 0.0921341 9.64042 0.0812762 9.72399C0.0332385 10.0904 0.00658756 10.4594 7.01072e-06 10.7944C-0.000650997 10.8399 0.0450835 10.8713 0.106282 10.876ZM0.27244 9.36496C0.365883 9.36362 9.88622 9.09686 12.5003 9.09686C15.1128 9.09686 24.6344 9.36362 24.7279 9.36496C24.8062 9.3663 24.8592 9.32952 24.8457 9.25397C24.7795 8.89026 24.6887 8.50783 24.5729 8.13141C24.5568 8.07926 24.5157 8.06522 24.4739 8.06789C24.4268 8.07057 12.5003 8.7893 12.5003 8.7893C12.5003 8.7893 0.573169 8.07057 0.526118 8.06789C0.48499 8.06522 0.443204 8.07926 0.427411 8.13141C0.311265 8.50849 0.220454 8.89026 0.154649 9.25397C0.140501 9.32952 0.193803 9.3663 0.27244 9.36496ZM0.580078 14.3259C2.17782 18.7667 6.91052 22 12.5003 22C18.0901 22 22.8218 18.7674 24.4206 14.3259C24.4512 14.2397 24.4094 14.1915 24.312 14.1915H0.68734C0.590936 14.1915 0.548492 14.2397 0.580078 14.3259ZM7.01072e-06 11.2056C0.0065875 11.5406 0.0335676 11.9103 0.0812762 12.2767C0.0921341 12.3596 0.148726 12.3897 0.22177 12.387C0.587646 12.373 8.54578 11.7986 12.5003 11.8167C16.4555 11.7986 24.414 12.3723 24.7779 12.387C24.8516 12.3897 24.9079 12.3596 24.9191 12.2767C24.9674 11.9096 24.9934 11.5406 25 11.2056C25.0007 11.1595 24.9549 11.1287 24.894 11.124C24.4545 11.0906 16.3739 11.5018 12.5003 11.4964C8.62869 11.5018 0.546189 11.0906 0.106282 11.124C0.0450835 11.1287 -0.000650997 11.1595 7.01072e-06 11.2056ZM0.154649 12.7454C0.220454 13.1091 0.310936 13.4922 0.427411 13.8679C0.443204 13.9201 0.48499 13.9355 0.526118 13.9328C0.573498 13.9294 12.5003 13.2114 12.5003 13.2114C12.5003 13.2114 24.4268 13.9294 24.4739 13.9328C24.5157 13.9355 24.5568 13.9201 24.5729 13.8679C24.6887 13.4928 24.7795 13.1091 24.8457 12.7454C24.8592 12.6705 24.8062 12.6337 24.7279 12.6344C24.6344 12.6357 15.1128 12.9031 12.5003 12.9031C9.88622 12.9031 0.365883 12.6357 0.27244 12.6344C0.193803 12.6337 0.140501 12.6711 0.154649 12.7454Z" fill="url(#paint0_radial_9251_66646)"/>
<path d="M0.68734 7.80915H24.312C24.4094 7.80915 24.4512 7.76034 24.4206 7.67476C22.8218 3.23264 18.0901 0 12.5003 0C6.91052 0 2.17782 3.23264 0.580078 7.67476C0.548492 7.75967 0.590936 7.80915 0.68734 7.80915ZM0.106282 10.876C0.546189 10.9094 8.62869 10.4982 12.5003 10.5036C16.3739 10.4982 24.4541 10.9094 24.894 10.876C24.9549 10.8713 25.0007 10.8399 25 10.7944C24.9934 10.4594 24.9671 10.0904 24.9191 9.72399C24.9079 9.64042 24.8516 9.61033 24.7779 9.61301C24.414 9.62772 16.4555 10.2007 12.5003 10.1847C8.54545 10.2014 0.587646 9.62772 0.22177 9.61301C0.148726 9.61033 0.0921341 9.64042 0.0812762 9.72399C0.0332385 10.0904 0.00658756 10.4594 7.01072e-06 10.7944C-0.000650997 10.8399 0.0450835 10.8713 0.106282 10.876ZM0.27244 9.36496C0.365883 9.36362 9.88622 9.09686 12.5003 9.09686C15.1128 9.09686 24.6344 9.36362 24.7279 9.36496C24.8062 9.3663 24.8592 9.32952 24.8457 9.25397C24.7795 8.89026 24.6887 8.50783 24.5729 8.13141C24.5568 8.07926 24.5157 8.06522 24.4739 8.06789C24.4268 8.07057 12.5003 8.7893 12.5003 8.7893C12.5003 8.7893 0.573169 8.07057 0.526118 8.06789C0.48499 8.06522 0.443204 8.07926 0.427411 8.13141C0.311265 8.50849 0.220454 8.89026 0.154649 9.25397C0.140501 9.32952 0.193803 9.3663 0.27244 9.36496ZM0.580078 14.3259C2.17782 18.7667 6.91052 22 12.5003 22C18.0901 22 22.8218 18.7674 24.4206 14.3259C24.4512 14.2397 24.4094 14.1915 24.312 14.1915H0.68734C0.590936 14.1915 0.548492 14.2397 0.580078 14.3259ZM7.01072e-06 11.2056C0.0065875 11.5406 0.0335676 11.9103 0.0812762 12.2767C0.0921341 12.3596 0.148726 12.3897 0.22177 12.387C0.587646 12.373 8.54578 11.7986 12.5003 11.8167C16.4555 11.7986 24.414 12.3723 24.7779 12.387C24.8516 12.3897 24.9079 12.3596 24.9191 12.2767C24.9674 11.9096 24.9934 11.5406 25 11.2056C25.0007 11.1595 24.9549 11.1287 24.894 11.124C24.4545 11.0906 16.3739 11.5018 12.5003 11.4964C8.62869 11.5018 0.546189 11.0906 0.106282 11.124C0.0450835 11.1287 -0.000650997 11.1595 7.01072e-06 11.2056ZM0.154649 12.7454C0.220454 13.1091 0.310936 13.4922 0.427411 13.8679C0.443204 13.9201 0.48499 13.9355 0.526118 13.9328C0.573498 13.9294 12.5003 13.2114 12.5003 13.2114C12.5003 13.2114 24.4268 13.9294 24.4739 13.9328C24.5157 13.9355 24.5568 13.9201 24.5729 13.8679C24.6887 13.4928 24.7795 13.1091 24.8457 12.7454C24.8592 12.6705 24.8062 12.6337 24.7279 12.6344C24.6344 12.6357 15.1128 12.9031 12.5003 12.9031C9.88622 12.9031 0.365883 12.6357 0.27244 12.6344C0.193803 12.6337 0.140501 12.6711 0.154649 12.7454Z" fill="url(#paint1_radial_9251_66646)"/>
<defs>
<radialGradient id="paint0_radial_9251_66646" cx="0" cy="0" r="1" gradientUnits="userSpaceOnUse" gradientTransform="translate(12.5 8.18223) scale(14.7317 13.8586)">
<stop stop-color="#9BC4F0"/>
<stop offset="0.5933" stop-color="#0075D2"/>
<stop offset="1" stop-color="#014880"/>
</radialGradient>
<radialGradient id="paint1_radial_9251_66646" cx="0" cy="0" r="1" gradientUnits="userSpaceOnUse" gradientTransform="translate(12.5 8.18223) scale(14.7317 13.8586)">
<stop stop-color="#9BC4F0"/>
<stop offset="0.5933" stop-color="#0075D2"/>
<stop offset="1" stop-color="#014880"/>
</radialGradient>
</defs>
</svg>
