<svg width="176" height="218" viewBox="0 0 176 218" fill="none" xmlns="http://www.w3.org/2000/svg">
<path d="M35.7501 183.624H139.674C142.531 183.631 145.284 182.553 147.383 180.607C156.138 172.465 163.141 162.61 167.964 151.648C172.786 140.686 175.324 128.849 175.423 116.865C175.871 68.137 136.438 28.0425 87.9251 27.9275C39.3851 27.8124 5.76362e-05 67.3034 5.76362e-05 116.034C-0.013803 128.163 2.47244 140.163 7.30224 151.28C12.132 162.396 19.2008 172.387 28.0634 180.625C30.1576 182.562 32.9031 183.633 35.7501 183.624V183.624Z" fill="url(#paint0_linear_5515_100285)"/>
<g filter="url(#filter0_d_5515_100285)">
<path d="M133.514 183.328H45.0478C42.8771 183.328 40.7954 182.467 39.2605 180.934C37.7256 179.402 36.8633 177.323 36.8633 175.156V34.172C36.8633 32.0047 37.7256 29.9261 39.2605 28.3935C40.7954 26.861 42.8771 26 45.0478 26H105.75L141.699 61.8937V175.156C141.699 176.229 141.487 177.292 141.076 178.283C140.664 179.275 140.061 180.176 139.301 180.934C138.541 181.693 137.639 182.295 136.646 182.706C135.653 183.117 134.589 183.328 133.514 183.328V183.328Z" fill="white"/>
</g>
<path d="M141.699 61.8937H113.935C112.86 61.8937 111.795 61.6823 110.802 61.2716C109.809 60.8609 108.907 60.259 108.147 59.5002C107.387 58.7413 106.784 57.8404 106.373 56.849C105.962 55.8575 105.75 54.7948 105.75 53.7217V26L141.699 61.8937Z" fill="#0099FF"/>
<path d="M88.5591 53.3589H54.3073C52.5719 53.3589 51.165 54.7636 51.165 56.4963V56.4963C51.165 58.229 52.5719 59.6337 54.3073 59.6337H88.5591C90.2945 59.6337 91.7013 58.229 91.7013 56.4963C91.7013 54.7636 90.2945 53.3589 88.5591 53.3589Z" fill="#E5E9F1"/>
<path d="M123.472 74.5122H54.3073C52.5719 74.5122 51.165 75.9169 51.165 77.6496V77.6496C51.165 79.3824 52.5719 80.787 54.3073 80.787H123.472C125.208 80.787 126.614 79.3824 126.614 77.6496C126.614 75.9169 125.208 74.5122 123.472 74.5122Z" fill="#E5E9F1"/>
<path d="M123.472 95.6646H54.3073C52.5719 95.6646 51.165 97.0692 51.165 98.802C51.165 100.535 52.5719 101.939 54.3073 101.939H123.472C125.208 101.939 126.614 100.535 126.614 98.802C126.614 97.0692 125.208 95.6646 123.472 95.6646Z" fill="#E5E9F1"/>
<path d="M123.472 116.817H54.3073C52.5719 116.817 51.165 118.222 51.165 119.955V119.955C51.165 121.688 52.5719 123.092 54.3073 123.092H123.472C125.208 123.092 126.614 121.688 126.614 119.955C126.614 118.222 125.208 116.817 123.472 116.817Z" fill="#E5E9F1"/>
<path d="M123.725 137.971H54.3073C52.5719 137.971 51.165 139.375 51.165 141.108C51.165 142.841 52.5719 144.246 54.3073 144.246H123.725C125.46 144.246 126.867 142.841 126.867 141.108C126.867 139.375 125.46 137.971 123.725 137.971Z" fill="#E5E9F1"/>
<path d="M91.7013 159H54.3073C52.5719 159 51.165 160.404 51.165 162.137C51.165 163.87 52.5719 165.274 54.3073 165.274H91.7013C93.4367 165.274 94.8435 163.87 94.8435 162.137C94.8435 160.404 93.4367 159 91.7013 159Z" fill="#E5E9F1"/>
<path d="M171.612 69.5999C172.775 70.0724 173.703 70.9871 174.192 72.1428C174.68 73.2986 174.688 74.6007 174.215 75.7626L170.447 85.0168L161.671 81.4537L165.439 72.1996C165.913 71.0376 166.829 70.1109 167.986 69.6234C169.144 69.1358 170.448 69.1274 171.612 69.5999Z" fill="#0099FF"/>
<path opacity="0.15" d="M171.612 69.5999C172.775 70.0724 173.703 70.9871 174.192 72.1428C174.68 73.2986 174.688 74.6007 174.215 75.7626L170.447 85.0168L161.671 81.4537L165.439 72.1996C165.913 71.0376 166.829 70.1109 167.986 69.6234C169.144 69.1358 170.448 69.1274 171.612 69.5999Z" fill="black"/>
<path d="M164.949 77.2239L171.054 79.7024C171.742 79.9817 172.29 80.5224 172.579 81.2055C172.867 81.8886 172.872 82.6582 172.593 83.345L133.477 179.394L122.185 174.81L161.301 78.7605C161.581 78.0737 162.122 77.526 162.806 77.2378C163.49 76.9496 164.261 76.9446 164.949 77.2239Z" fill="#0099FF"/>
<path d="M159.89 121.964C159.646 121.864 159.44 121.688 159.305 121.462C159.169 121.235 159.111 120.971 159.138 120.709L159.733 115.09C159.749 114.941 159.793 114.796 159.861 114.662L171.728 91.5965C171.795 91.4677 171.833 91.3264 171.842 91.1818C171.851 91.0372 171.829 90.8923 171.779 90.7565C171.728 90.6206 171.65 90.4967 171.549 90.3927C171.448 90.2887 171.326 90.2068 171.192 90.1522L158.989 85.1977C158.69 85.076 158.451 84.8407 158.326 84.5436C158.201 84.2465 158.199 83.9118 158.32 83.6132C158.442 83.3145 158.677 83.0763 158.975 82.9508C159.272 82.8254 159.607 82.823 159.907 82.9441L172.11 87.8987C172.557 88.0804 172.962 88.3532 173.298 88.6996C173.634 89.046 173.895 89.4585 174.063 89.9108C174.231 90.3631 174.303 90.8454 174.274 91.3269C174.245 91.8085 174.116 92.2788 173.896 92.708L162.133 115.572L161.561 120.965C161.541 121.152 161.478 121.332 161.376 121.491C161.275 121.65 161.137 121.783 160.975 121.88C160.813 121.977 160.631 122.035 160.443 122.049C160.255 122.064 160.065 122.035 159.89 121.964V121.964Z" fill="#0099FF"/>
<path opacity="0.15" d="M159.89 121.964C159.646 121.864 159.44 121.688 159.305 121.462C159.169 121.235 159.111 120.971 159.138 120.709L159.733 115.09C159.749 114.941 159.793 114.796 159.861 114.662L171.728 91.5965C171.795 91.4677 171.833 91.3264 171.842 91.1818C171.851 91.0372 171.829 90.8923 171.779 90.7565C171.728 90.6206 171.65 90.4967 171.549 90.3927C171.448 90.2887 171.326 90.2068 171.192 90.1522L158.989 85.1977C158.69 85.076 158.451 84.8407 158.326 84.5436C158.201 84.2465 158.199 83.9118 158.32 83.6132C158.442 83.3145 158.677 83.0763 158.975 82.9508C159.272 82.8254 159.607 82.823 159.907 82.9441L172.11 87.8987C172.557 88.0804 172.962 88.3532 173.298 88.6996C173.634 89.046 173.895 89.4585 174.063 89.9108C174.231 90.3631 174.303 90.8454 174.274 91.3269C174.245 91.8085 174.116 92.2788 173.896 92.708L162.133 115.572L161.561 120.965C161.541 121.152 161.478 121.332 161.376 121.491C161.275 121.65 161.137 121.783 160.975 121.88C160.813 121.977 160.631 122.035 160.443 122.049C160.255 122.064 160.065 122.035 159.89 121.964V121.964Z" fill="black"/>
<path d="M122.185 174.809L120.949 194L133.477 179.394L122.185 174.809Z" fill="#0099FF"/>
<path opacity="0.15" d="M122.185 174.809L120.949 194L133.477 179.394L122.185 174.809Z" fill="black"/>
<defs>
<filter id="filter0_d_5515_100285" x="6.86328" y="0" width="164.835" height="217.328" filterUnits="userSpaceOnUse" color-interpolation-filters="sRGB">
<feFlood flood-opacity="0" result="BackgroundImageFix"/>
<feColorMatrix in="SourceAlpha" type="matrix" values="0 0 0 0 0 0 0 0 0 0 0 0 0 0 0 0 0 0 127 0" result="hardAlpha"/>
<feOffset dy="4"/>
<feGaussianBlur stdDeviation="15"/>
<feComposite in2="hardAlpha" operator="out"/>
<feColorMatrix type="matrix" values="0 0 0 0 0 0 0 0 0 0 0 0 0 0 0 0 0 0 0.1 0"/>
<feBlend mode="normal" in2="BackgroundImageFix" result="effect1_dropShadow_5515_100285"/>
<feBlend mode="normal" in="SourceGraphic" in2="effect1_dropShadow_5515_100285" result="shape"/>
</filter>
<linearGradient id="paint0_linear_5515_100285" x1="87.7135" y1="27.9272" x2="87.7135" y2="183.624" gradientUnits="userSpaceOnUse">
<stop stop-color="#FBFDFE"/>
<stop offset="1" stop-color="#F0F5FA"/>
</linearGradient>
</defs>
</svg>
