<svg width="32" height="32" viewBox="0 0 32 32" fill="none" xmlns="http://www.w3.org/2000/svg">
<path fill-rule="evenodd" clip-rule="evenodd" d="M7.78106 23.0281C5.43905 23.0281 3.73971 21.3777 3.73971 19.1026C3.73971 16.9248 5.48209 15.1523 7.62422 15.1523C9.79444 15.1523 11.431 16.874 11.431 19.1553C11.431 21.3276 9.82764 23.0281 7.78106 23.0281ZM14.5164 5.00254C14.8472 5.00254 15.1186 5.27258 15.1186 5.60258V25.6587C15.1186 25.9891 14.8472 26.2602 14.5164 26.2602H12.1667C11.8352 26.2602 11.5645 25.9891 11.5645 25.6587V25.2785L11.5616 25.2749C10.3321 26.1664 8.96356 26.6 7.38969 26.6C5.57874 26.6 3.95418 26.0196 2.69071 24.922C0.955992 23.4315 0 21.3465 0 19.051C0 16.9427 0.893985 14.9179 2.45326 13.4954C3.77144 12.2597 5.47917 11.6063 7.38969 11.6063C9.08976 11.6063 10.3923 11.9991 11.5616 12.8721L11.5645 12.838V5.60258C11.5645 5.27258 11.8352 5.00254 12.1667 5.00254H14.5164ZM19.8475 5C20.179 5 20.4504 5.27004 20.4504 5.60004L20.453 22.7145L31.3938 22.7123C31.7202 22.7137 31.9967 22.9856 31.9967 23.3156V25.6227C31.9967 25.9534 31.7257 26.2344 31.3938 26.2573H17.4982C17.167 26.2344 16.8956 25.964 16.8956 25.6332V5.60004C16.8956 5.27004 17.167 5 17.4982 5H19.8475ZM25.1786 5C25.5105 5 25.7815 5.26967 25.7815 5.60004V17.4035H31.3967C31.7286 17.4035 32 17.6732 32 18.0039V20.3365C32 20.6657 31.7337 20.9434 31.3967 20.9434H22.8358C22.5039 20.9434 22.2333 20.673 22.2333 20.343L22.2271 5.60004C22.2271 5.26967 22.4977 5 22.8293 5H25.1786Z" fill="#B1B5C4"/>
</svg>
