<svg width="64" height="40" viewBox="0 0 64 40" fill="none" xmlns="http://www.w3.org/2000/svg">
<rect width="64" height="40" rx="8" fill="#BBDFFF"/>
<path d="M17.0997 14.2857H12.3596C12.2643 14.2857 12.1728 14.3236 12.1053 14.391C12.0379 14.4585 12 14.55 12 14.6454V26.6763C11.9999 26.7236 12.0091 26.7705 12.0271 26.8143C12.0451 26.858 12.0716 26.8978 12.105 26.9313C12.1384 26.9648 12.1781 26.9913 12.2218 27.0095C12.2655 27.0276 12.3123 27.0369 12.3596 27.0369H17.0997C18.8636 27.0369 20.3362 26.4268 21.5174 25.2064C22.6985 23.986 23.2904 22.471 23.2931 20.6613C23.2931 18.8523 22.7012 17.3373 21.5174 16.1163C20.3336 14.8952 18.861 14.2851 17.0997 14.2857ZM19.5496 23.2572C18.9244 23.9066 18.1078 24.2313 17.0997 24.2313H14.9144V17.0913H17.0997C18.1084 17.0913 18.925 17.416 19.5496 18.0654C20.1742 18.7148 20.4868 19.5801 20.4874 20.6613C20.4874 21.7406 20.1748 22.6069 19.5496 23.2602V23.2572ZM32.0363 24.591V26.6763C32.0364 26.7236 32.0272 26.7705 32.0092 26.8143C31.9911 26.858 31.9647 26.8978 31.9313 26.9313C31.8979 26.9648 31.8582 26.9913 31.8145 27.0095C31.7708 27.0276 31.7239 27.0369 31.6766 27.0369H24.9276C24.8803 27.0369 24.8335 27.0276 24.7898 27.0095C24.7461 26.9913 24.7064 26.9648 24.673 26.9313C24.6396 26.8978 24.6131 26.858 24.5951 26.8143C24.5771 26.7705 24.5679 26.7236 24.568 26.6763V14.6454C24.568 14.55 24.6059 14.4585 24.6733 14.391C24.7408 14.3236 24.8322 14.2857 24.9276 14.2857H27.1227C27.2181 14.2857 27.3096 14.3236 27.377 14.391C27.4445 14.4585 27.4824 14.55 27.4824 14.6454V24.2313H31.6766C31.7238 24.2313 31.7706 24.2406 31.8142 24.2587C31.8579 24.2768 31.8975 24.3033 31.9309 24.3366C31.9643 24.37 31.9908 24.4097 32.0089 24.4533C32.027 24.497 32.0363 24.5437 32.0363 24.591V24.591ZM40.7795 24.591V26.6763C40.7796 26.7236 40.7704 26.7705 40.7524 26.8143C40.7343 26.858 40.7079 26.8978 40.6745 26.9313C40.6411 26.9648 40.6014 26.9913 40.5577 27.0095C40.514 27.0276 40.4671 27.0369 40.4198 27.0369H33.6708C33.6235 27.0369 33.5767 27.0276 33.533 27.0095C33.4893 26.9913 33.4496 26.9648 33.4162 26.9313C33.3828 26.8978 33.3563 26.858 33.3383 26.8143C33.3203 26.7705 33.311 26.7236 33.3112 26.6763V14.6454C33.3112 14.55 33.3491 14.4585 33.4165 14.391C33.484 14.3236 33.5754 14.2857 33.6708 14.2857H35.8659C35.9613 14.2857 36.0528 14.3236 36.1202 14.391C36.1877 14.4585 36.2256 14.55 36.2256 14.6454V24.2313H40.4198C40.467 24.2313 40.5138 24.2406 40.5574 24.2587C40.6011 24.2768 40.6407 24.3033 40.6741 24.3366C40.7075 24.37 40.734 24.4097 40.7521 24.4533C40.7701 24.497 40.7795 24.5437 40.7795 24.591ZM52 18.1644V20.3585C52.0001 20.4058 51.9909 20.4527 51.9729 20.4965C51.9549 20.5402 51.9284 20.58 51.895 20.6135C51.8616 20.647 51.8219 20.6735 51.7782 20.6917C51.7345 20.7098 51.6877 20.7191 51.6403 20.7191H48.4849V23.8746C48.4849 23.9219 48.4755 23.9688 48.4574 24.0125C48.4393 24.0562 48.4127 24.0959 48.3792 24.1293C48.3457 24.1627 48.3059 24.1892 48.2622 24.2072C48.2184 24.2252 48.1716 24.2344 48.1242 24.2343H45.9301C45.8829 24.2343 45.8361 24.225 45.7925 24.2069C45.7489 24.1888 45.7092 24.1623 45.6758 24.1289C45.6424 24.0955 45.6159 24.0559 45.5978 24.0122C45.5798 23.9686 45.5705 23.9218 45.5705 23.8746V20.7123H42.414C42.3185 20.712 42.2271 20.6739 42.1597 20.6063C42.0922 20.5387 42.0544 20.4471 42.0544 20.3517V18.1644C42.0544 18.069 42.0923 17.9775 42.1597 17.9101C42.2272 17.8426 42.3186 17.8047 42.414 17.8047H45.5705V14.6454C45.5705 14.5981 45.5798 14.5514 45.5978 14.5077C45.6159 14.4641 45.6424 14.4244 45.6758 14.391C45.7092 14.3577 45.7489 14.3312 45.7925 14.3131C45.8361 14.295 45.8829 14.2857 45.9301 14.2857H48.1242C48.2197 14.2857 48.3113 14.3236 48.3789 14.391C48.4465 14.4584 48.4846 14.5499 48.4849 14.6454V17.8018H51.6403C51.6878 17.8018 51.7348 17.8112 51.7787 17.8295C51.8225 17.8477 51.8623 17.8745 51.8957 17.9082C51.9291 17.9419 51.9556 17.9819 51.9735 18.0259C51.9914 18.0698 52.0004 18.1169 52 18.1644V18.1644Z" fill="black"/>
</svg>
