<svg width="35" height="35" viewBox="0 0 35 35" fill="none" xmlns="http://www.w3.org/2000/svg">
    <path fill-rule="evenodd" clip-rule="evenodd" d="M4 14.0447C4 7.40206 9.60469 2 16.5 2C23.3953 2 29 7.40206 29 14.0447C29 22.2211 21.7719 27.8003 14.9375 31V26.1667C8.44844 25.8348 4 20.5213 4 14.0447Z" fill="white" stroke="white" stroke-width="1.5" stroke-linecap="round" stroke-linejoin="round"/>
    <path d="M16.7221 17.235V16.9331C16.7221 15.9444 17.3332 15.4092 17.9457 14.9979C18.5436 14.5954 19.1429 14.0704 19.1429 13.1021C19.1429 11.7648 18.0594 10.6827 16.7236 10.6827C15.3877 10.6827 14.3027 11.7633 14.3027 13.1006" stroke="#0197FD" stroke-width="2" stroke-linecap="round" stroke-linejoin="round"/>
    <path d="M16.7209 20.646C16.5998 20.646 16.5021 20.7437 16.5036 20.8648C16.5036 20.9858 16.6013 21.0835 16.7223 21.0835C16.8434 21.0835 16.9411 20.9858 16.9411 20.8648C16.9411 20.7437 16.8434 20.646 16.7209 20.646" stroke="#0197FD" stroke-width="2" stroke-linecap="round" stroke-linejoin="round"/>
</svg>
