<svg width="70" height="48" viewBox="0 0 70 48" fill="none" xmlns="http://www.w3.org/2000/svg">
<rect x="0.5" y="0.5" width="69" height="47" rx="5.5" fill="#0099FF" stroke="white"/>
<path fill-rule="evenodd" clip-rule="evenodd" d="M26.7811 31.0281C24.439 31.0281 22.7397 29.3777 22.7397 27.1026C22.7397 24.9248 24.4821 23.1523 26.6242 23.1523C28.7944 23.1523 30.431 24.874 30.431 27.1553C30.431 29.3276 28.8276 31.0281 26.7811 31.0281ZM33.5164 13.0025C33.8472 13.0025 34.1186 13.2726 34.1186 13.6026V33.6587C34.1186 33.9891 33.8472 34.2602 33.5164 34.2602H31.1667C30.8352 34.2602 30.5645 33.9891 30.5645 33.6587V33.2785L30.5616 33.2749C29.3321 34.1664 27.9636 34.6 26.3897 34.6C24.5787 34.6 22.9542 34.0196 21.6907 32.922C19.956 31.4315 19 29.3465 19 27.051C19 24.9427 19.894 22.9179 21.4533 21.4954C22.7714 20.2597 24.4792 19.6063 26.3897 19.6063C28.0898 19.6063 29.3923 19.9991 30.5616 20.8721L30.5645 20.838V13.6026C30.5645 13.2726 30.8352 13.0025 31.1667 13.0025H33.5164ZM38.8475 13C39.179 13 39.4504 13.27 39.4504 13.6L39.453 30.7145L50.3938 30.7123C50.7202 30.7137 50.9967 30.9856 50.9967 31.3156V33.6227C50.9967 33.9534 50.7257 34.2344 50.3938 34.2573H36.4982C36.167 34.2344 35.8956 33.964 35.8956 33.6332V13.6C35.8956 13.27 36.167 13 36.4982 13H38.8475ZM44.1786 13C44.5105 13 44.7815 13.2697 44.7815 13.6V25.4035H50.3967C50.7286 25.4035 51 25.6732 51 26.0039V28.3365C51 28.6657 50.7337 28.9434 50.3967 28.9434H41.8358C41.5039 28.9434 41.2333 28.673 41.2333 28.343L41.2271 13.6C41.2271 13.2697 41.4977 13 41.8293 13H44.1786Z" fill="white"/>
</svg>
