<svg width="70" height="48" viewBox="0 0 70 48" fill="none" xmlns="http://www.w3.org/2000/svg">
<rect width="70" height="48" rx="10" fill="black"/>
<path d="M11.5719 31.0463C10.1298 31.0463 8.96088 32.3793 8.96088 34.0233C8.96088 35.667 10.1298 37 11.5719 37C13.0141 37 14.1841 35.667 14.1841 34.0233C14.1841 32.3793 13.0141 31.0463 11.5719 31.0463ZM11.5759 36.1281C10.9624 36.1281 9.99815 35.6321 9.99815 34.0223C9.99815 32.4131 10.9584 31.8988 11.5759 31.8988C12.1932 31.8988 13.1539 32.4114 13.1539 34.0223C13.1539 35.6342 12.1902 36.1281 11.5759 36.1281Z" fill="white"/>
<path d="M51.7825 31.0463C50.3405 31.0463 49.1708 32.3793 49.1708 34.0233C49.1708 35.667 50.3405 37 51.7825 37C53.2249 37 54.3953 35.667 54.3953 34.0233C54.3953 32.3793 53.2248 31.0463 51.7825 31.0463ZM51.7872 36.1281C51.1727 36.1281 50.2084 35.6321 50.2084 34.0223C50.2084 32.4131 51.1693 31.8988 51.7872 31.8988C52.4045 31.8988 53.3648 32.4114 53.3648 34.0223C53.3648 35.6342 52.401 36.1281 51.7872 36.1281Z" fill="white"/>
<path d="M4.98389 31.184H4V36.8623H4.98389V31.184Z" fill="white"/>
<path d="M21.8296 31.184H20.8448V36.8623H21.8296V31.184Z" fill="white"/>
<path d="M26.0956 31.9644H26.5074L26.5545 31.2074C26.3482 31.184 26.1937 31.1719 25.9826 31.1719C23.9789 31.1719 22.688 32.3365 22.688 34.0222C22.688 35.7084 23.9789 36.8726 25.9826 36.8726C26.1937 36.8726 26.3482 36.8598 26.5545 36.836L26.5074 36.0774H26.0956C24.7267 36.0774 23.776 35.3563 23.776 34.0285C23.7762 32.7003 24.7168 31.9644 26.0956 31.9644Z" fill="white"/>
<path d="M18.7504 34.5738C18.7504 34.5849 18.7456 34.5894 18.7414 34.5811C18.0543 33.1876 16.5816 31.73 15.6853 31.184H15.002V36.8623H15.9297C15.9297 36.8623 15.8927 32.4845 15.8927 32.4756C15.8927 32.4614 15.8963 32.4569 15.9037 32.4611C17.0232 33.3057 18.1921 34.938 18.8321 36.8619H19.6541V31.184H18.7137C18.7137 31.184 18.7504 34.5683 18.7504 34.5738Z" fill="white"/>
<path d="M47.4531 34.5738C47.4531 34.5849 47.4473 34.5894 47.4444 34.5811C46.7567 33.1876 45.284 31.73 44.3868 31.184H43.7038V36.8623H44.6323C44.6323 36.8623 44.5953 32.4845 44.5953 32.4756C44.5953 32.4614 44.5992 32.4569 44.6053 32.4611C45.7258 33.3057 46.8952 34.938 47.5339 36.8619H48.3562V31.184H47.4162C47.4162 31.184 47.4531 34.5683 47.4531 34.5738Z" fill="white"/>
<path d="M42.5119 31.184H41.5284V36.8623H42.5119V31.184Z" fill="white"/>
<path d="M26.8455 36.8623H27.7791C27.7791 36.8623 29.1746 33.2567 29.2272 33.1362C29.2909 33.2598 30.9502 36.8623 30.9502 36.8623H32.0578L29.2424 31.0242L26.8455 36.8623Z" fill="white"/>
<path d="M63.1833 31.0242L60.7872 36.8623H61.7221C61.7221 36.8623 63.1175 33.2567 63.1699 33.1362C63.2332 33.2598 64.8917 36.8623 64.8917 36.8623H66L63.1833 31.0242Z" fill="white"/>
<path d="M6.66182 33.4921C7.20967 32.8718 8.68835 31.184 8.68835 31.184H7.51375L5.35889 33.6698C6.39428 34.4161 7.25817 35.4322 7.7939 36.8619H8.82378C8.41513 35.5189 7.63123 34.2908 6.66182 33.4921Z" fill="white"/>
<path d="M56.1986 31.184H55.2133V36.8623H58.2117V36.0484H56.1986V31.184Z" fill="white"/>
<path d="M61.3808 31.184H57.7651V31.9961H59.0808V36.8623H60.0643V31.9961H61.3808V31.184Z" fill="white"/>
<path d="M37.701 33.8438C37.6064 34.0423 37.4741 34.4931 37.3847 34.7582C37.3825 34.7657 37.3736 34.7657 37.3711 34.7582C37.284 34.4989 37.1507 34.0454 37.0581 33.8504C36.6083 32.8211 35.8526 31.4929 35.427 31C35.1772 31.5029 34.1897 35.9124 33.9823 36.8619H34.969C34.969 36.8619 35.7132 33.0958 35.7158 33.0845C35.718 33.0717 35.7243 33.0686 35.7299 33.0782C36.0537 33.6236 36.6861 35.0747 37.0658 36.358H37.6911C38.0417 35.1599 38.7021 33.6457 39.027 33.1007C39.0317 33.0917 39.0361 33.0972 39.038 33.1062C39.0405 33.1162 39.7861 36.8619 39.7861 36.8619H40.7733C40.5655 35.9124 39.5788 31.5029 39.3287 31C38.8941 31.4929 38.1549 32.8211 37.701 33.8438Z" fill="white"/>
<path d="M23.6873 12.8091H47.312C47.4094 12.8091 47.4512 12.7603 47.4206 12.6748C45.8218 8.23264 41.0901 5 35.5003 5C29.9105 5 25.1778 8.23264 23.5801 12.6748C23.5485 12.7597 23.5909 12.8091 23.6873 12.8091ZM23.1063 15.876C23.5462 15.9094 31.6287 15.4982 35.5003 15.5036C39.3739 15.4982 47.4541 15.9094 47.894 15.876C47.9549 15.8713 48.0007 15.8399 48 15.7944C47.9934 15.4594 47.9671 15.0904 47.9191 14.724C47.9079 14.6404 47.8516 14.6103 47.7779 14.613C47.414 14.6277 39.4555 15.2007 35.5003 15.1847C31.5454 15.2014 23.5876 14.6277 23.2218 14.613C23.1487 14.6103 23.0921 14.6404 23.0813 14.724C23.0332 15.0904 23.0066 15.4594 23 15.7944C22.9993 15.8399 23.0451 15.8713 23.1063 15.876ZM23.2724 14.365C23.3659 14.3636 32.8862 14.0969 35.5003 14.0969C38.1128 14.0969 47.6344 14.3636 47.7279 14.365C47.8062 14.3663 47.8592 14.3295 47.8457 14.254C47.7795 13.8903 47.6887 13.5078 47.5729 13.1314C47.5568 13.0793 47.5157 13.0652 47.4739 13.0679C47.4268 13.0706 35.5003 13.7893 35.5003 13.7893C35.5003 13.7893 23.5732 13.0706 23.5261 13.0679C23.485 13.0652 23.4432 13.0793 23.4274 13.1314C23.3113 13.5085 23.2205 13.8903 23.1546 14.254C23.1405 14.3295 23.1938 14.3663 23.2724 14.365ZM23.5801 19.3259C25.1778 23.7667 29.9105 27 35.5003 27C41.0901 27 45.8218 23.7674 47.4206 19.3259C47.4512 19.2397 47.4094 19.1915 47.312 19.1915H23.6873C23.5909 19.1915 23.5485 19.2397 23.5801 19.3259ZM23 16.2056C23.0066 16.5406 23.0336 16.9103 23.0813 17.2767C23.0921 17.3596 23.1487 17.3897 23.2218 17.387C23.5876 17.373 31.5458 16.7986 35.5003 16.8167C39.4555 16.7986 47.414 17.3723 47.7779 17.387C47.8516 17.3897 47.9079 17.3596 47.9191 17.2767C47.9674 16.9096 47.9934 16.5406 48 16.2056C48.0007 16.1595 47.9549 16.1287 47.894 16.124C47.4545 16.0906 39.3739 16.5018 35.5003 16.4964C31.6287 16.5018 23.5462 16.0906 23.1063 16.124C23.0451 16.1287 22.9993 16.1595 23 16.2056ZM23.1546 17.7454C23.2205 18.1091 23.3109 18.4922 23.4274 18.8679C23.4432 18.9201 23.485 18.9355 23.5261 18.9328C23.5735 18.9294 35.5003 18.2114 35.5003 18.2114C35.5003 18.2114 47.4268 18.9294 47.4739 18.9328C47.5157 18.9355 47.5568 18.9201 47.5729 18.8679C47.6887 18.4928 47.7795 18.1091 47.8457 17.7454C47.8592 17.6705 47.8062 17.6337 47.7279 17.6344C47.6344 17.6357 38.1128 17.9031 35.5003 17.9031C32.8862 17.9031 23.3659 17.6357 23.2724 17.6344C23.1938 17.6337 23.1405 17.6711 23.1546 17.7454Z" fill="url(#paint0_radial_9251_66647)"/>
<path d="M23.6873 12.8091H47.312C47.4094 12.8091 47.4512 12.7603 47.4206 12.6748C45.8218 8.23264 41.0901 5 35.5003 5C29.9105 5 25.1778 8.23264 23.5801 12.6748C23.5485 12.7597 23.5909 12.8091 23.6873 12.8091ZM23.1063 15.876C23.5462 15.9094 31.6287 15.4982 35.5003 15.5036C39.3739 15.4982 47.4541 15.9094 47.894 15.876C47.9549 15.8713 48.0007 15.8399 48 15.7944C47.9934 15.4594 47.9671 15.0904 47.9191 14.724C47.9079 14.6404 47.8516 14.6103 47.7779 14.613C47.414 14.6277 39.4555 15.2007 35.5003 15.1847C31.5454 15.2014 23.5876 14.6277 23.2218 14.613C23.1487 14.6103 23.0921 14.6404 23.0813 14.724C23.0332 15.0904 23.0066 15.4594 23 15.7944C22.9993 15.8399 23.0451 15.8713 23.1063 15.876ZM23.2724 14.365C23.3659 14.3636 32.8862 14.0969 35.5003 14.0969C38.1128 14.0969 47.6344 14.3636 47.7279 14.365C47.8062 14.3663 47.8592 14.3295 47.8457 14.254C47.7795 13.8903 47.6887 13.5078 47.5729 13.1314C47.5568 13.0793 47.5157 13.0652 47.4739 13.0679C47.4268 13.0706 35.5003 13.7893 35.5003 13.7893C35.5003 13.7893 23.5732 13.0706 23.5261 13.0679C23.485 13.0652 23.4432 13.0793 23.4274 13.1314C23.3113 13.5085 23.2205 13.8903 23.1546 14.254C23.1405 14.3295 23.1938 14.3663 23.2724 14.365ZM23.5801 19.3259C25.1778 23.7667 29.9105 27 35.5003 27C41.0901 27 45.8218 23.7674 47.4206 19.3259C47.4512 19.2397 47.4094 19.1915 47.312 19.1915H23.6873C23.5909 19.1915 23.5485 19.2397 23.5801 19.3259ZM23 16.2056C23.0066 16.5406 23.0336 16.9103 23.0813 17.2767C23.0921 17.3596 23.1487 17.3897 23.2218 17.387C23.5876 17.373 31.5458 16.7986 35.5003 16.8167C39.4555 16.7986 47.414 17.3723 47.7779 17.387C47.8516 17.3897 47.9079 17.3596 47.9191 17.2767C47.9674 16.9096 47.9934 16.5406 48 16.2056C48.0007 16.1595 47.9549 16.1287 47.894 16.124C47.4545 16.0906 39.3739 16.5018 35.5003 16.4964C31.6287 16.5018 23.5462 16.0906 23.1063 16.124C23.0451 16.1287 22.9993 16.1595 23 16.2056ZM23.1546 17.7454C23.2205 18.1091 23.3109 18.4922 23.4274 18.8679C23.4432 18.9201 23.485 18.9355 23.5261 18.9328C23.5735 18.9294 35.5003 18.2114 35.5003 18.2114C35.5003 18.2114 47.4268 18.9294 47.4739 18.9328C47.5157 18.9355 47.5568 18.9201 47.5729 18.8679C47.6887 18.4928 47.7795 18.1091 47.8457 17.7454C47.8592 17.6705 47.8062 17.6337 47.7279 17.6344C47.6344 17.6357 38.1128 17.9031 35.5003 17.9031C32.8862 17.9031 23.3659 17.6357 23.2724 17.6344C23.1938 17.6337 23.1405 17.6711 23.1546 17.7454Z" fill="url(#paint1_radial_9251_66647)"/>
<defs>
<radialGradient id="paint0_radial_9251_66647" cx="0" cy="0" r="1" gradientUnits="userSpaceOnUse" gradientTransform="translate(35.5 13.1822) scale(14.7317 13.8586)">
<stop stop-color="#9BC4F0"/>
<stop offset="0.5933" stop-color="#0075D2"/>
<stop offset="1" stop-color="#014880"/>
</radialGradient>
<radialGradient id="paint1_radial_9251_66647" cx="0" cy="0" r="1" gradientUnits="userSpaceOnUse" gradientTransform="translate(35.5 13.1822) scale(14.7317 13.8586)">
<stop stop-color="#9BC4F0"/>
<stop offset="0.5933" stop-color="#0075D2"/>
<stop offset="1" stop-color="#014880"/>
</radialGradient>
</defs>
</svg>
