<svg width="62" height="32" viewBox="0 0 62 32" fill="none" xmlns="http://www.w3.org/2000/svg">
<g clip-path="url(#clip0_4600_46163)">
<path d="M51.6637 0H10.3364C5.09511 0 0.846191 4.23073 0.846191 9.44959V22.5504C0.846191 27.7693 5.09511 32 10.3364 32H51.6637C56.905 32 61.1539 27.7693 61.1539 22.5504V9.44959C61.1539 4.23073 56.905 0 51.6637 0Z" fill="black"/>
<path d="M15.6114 9.4391H10.6976C10.599 9.4391 10.5045 9.47809 10.4348 9.5475C10.3651 9.61691 10.3259 9.71105 10.3259 9.80921V22.1908C10.3259 22.2892 10.365 22.3836 10.4346 22.4534C10.5043 22.5233 10.5988 22.5628 10.6976 22.5635H15.6114C16.4623 22.5832 17.308 22.4257 18.0942 22.1012C18.8804 21.7766 19.5899 21.2922 20.1773 20.6789C21.3569 19.4038 22.0116 17.7336 22.0116 16C22.0116 14.2664 21.3569 12.5962 20.1773 11.3211C19.5898 10.7082 18.8802 10.2241 18.094 9.90005C17.3077 9.57596 16.4622 9.41896 15.6114 9.4391ZM18.1422 18.6708C17.8146 19.0056 17.42 19.268 16.9841 19.4412C16.5481 19.6144 16.0805 19.6944 15.6114 19.6762H13.3522V12.3265H15.6114C16.0803 12.3079 16.5478 12.3875 16.9838 12.5602C17.4197 12.733 17.8144 12.9949 18.1422 13.3292C18.7907 13.9994 19.1141 14.8901 19.1123 16.0013C19.0991 17.1011 18.7749 18.0041 18.129 18.6761L18.1422 18.6708ZM31.0594 20.0463V22.1908C31.0594 22.2892 31.0203 22.3836 30.9507 22.4534C30.8811 22.5233 30.7865 22.5628 30.6877 22.5635H23.6887C23.5899 22.5628 23.4953 22.5233 23.4257 22.4534C23.3561 22.3836 23.317 22.2892 23.317 22.1908V9.80921C23.317 9.71105 23.3561 9.61691 23.4259 9.5475C23.4956 9.47809 23.5901 9.4391 23.6887 9.4391H25.9584C26.057 9.4391 26.1515 9.47809 26.2213 9.5475C26.291 9.61691 26.3301 9.71105 26.3301 9.80921V19.6762H30.6666C30.7652 19.6762 30.8597 19.7152 30.9295 19.7846C30.9992 19.854 31.0383 19.9481 31.0383 20.0463H31.0594ZM40.0962 20.0463V22.1908C40.0962 22.2892 40.0571 22.3836 39.9875 22.4534C39.9179 22.5233 39.8233 22.5628 39.7245 22.5635H32.7281C32.6293 22.5628 32.5348 22.5233 32.4651 22.4534C32.3955 22.3836 32.3564 22.2892 32.3564 22.1908V9.80921C32.3564 9.71105 32.3956 9.61691 32.4653 9.5475C32.535 9.47809 32.6295 9.4391 32.7281 9.4391H34.9952C35.0941 9.43909 35.1889 9.478 35.259 9.54734C35.3291 9.61667 35.3689 9.71081 35.3696 9.80921V19.6762H39.7034C39.802 19.6762 39.8966 19.7152 39.9663 19.7846C40.036 19.854 40.0751 19.9481 40.0751 20.0463H40.0962ZM51.6954 13.4263V15.6863C51.6954 15.7845 51.6562 15.8786 51.5865 15.948C51.5168 16.0175 51.4222 16.0564 51.3237 16.0564H48.0364V19.3034C48.0364 19.4018 47.9973 19.4962 47.9277 19.5661C47.858 19.6359 47.7635 19.6755 47.6647 19.6762H45.4002C45.3014 19.6755 45.2068 19.6359 45.1372 19.5661C45.0676 19.4962 45.0285 19.4018 45.0285 19.3034V16.0512H41.7649C41.6663 16.0512 41.5718 16.0122 41.5021 15.9428C41.4324 15.8734 41.3932 15.7792 41.3932 15.6811V13.4263C41.3932 13.3281 41.4324 13.234 41.5021 13.1646C41.5718 13.0952 41.6663 13.0562 41.7649 13.0562H45.0285V9.80921C45.0285 9.71105 45.0677 9.61691 45.1374 9.5475C45.2071 9.47809 45.3016 9.4391 45.4002 9.4391H47.6699C47.7685 9.4391 47.8631 9.47809 47.9328 9.5475C48.0025 9.61691 48.0416 9.71105 48.0416 9.80921V13.0562H51.3026C51.4012 13.0562 51.4957 13.0952 51.5654 13.1646C51.6351 13.234 51.6743 13.3281 51.6743 13.4263H51.6954Z" fill="white"/>
</g>
<defs>
<clipPath id="clip0_4600_46163">
<rect width="60.3077" height="32" fill="white" transform="translate(0.846191)"/>
</clipPath>
</defs>
</svg>
