<svg width="51" height="16" viewBox="0 0 51 16" fill="none" xmlns="http://www.w3.org/2000/svg">
<g clip-path="url(#clip0_4600_46196)">
<path d="M6.39901 6.57559e-07H0.451277C0.331591 6.57559e-07 0.216808 0.0475497 0.132178 0.13218C0.0475469 0.216811 1.67536e-06 0.331596 1.67536e-06 0.451282V15.5475C-0.000160085 15.6069 0.0113934 15.6657 0.0339997 15.7206C0.056606 15.7755 0.0898204 15.8254 0.131741 15.8674C0.173662 15.9094 0.223465 15.9428 0.278297 15.9655C0.333128 15.9883 0.391911 16 0.451277 16H6.39901C8.61235 16 10.4601 15.2343 11.9422 13.703C13.4243 12.1717 14.167 10.2707 14.1703 8C14.1703 5.73009 13.4276 3.82908 11.9422 2.29696C10.4568 0.764832 8.60908 -0.000819098 6.39901 6.57559e-07ZM9.4731 11.2573C8.68859 12.0721 7.6639 12.4796 6.39901 12.4796H3.65693V3.52044H6.39901C7.66472 3.52044 8.68941 3.92786 9.4731 4.7427C10.2568 5.55754 10.649 6.6433 10.6499 8C10.6499 9.35423 10.2576 10.4412 9.4731 11.261V11.2573ZM25.1411 12.9308V15.5475C25.1413 15.6069 25.1297 15.6657 25.1071 15.7206C25.0845 15.7755 25.0513 15.8254 25.0093 15.8674C24.9674 15.9094 24.9176 15.9428 24.8628 15.9655C24.808 15.9883 24.7492 16 24.6898 16H16.2213C16.162 16 16.1032 15.9883 16.0483 15.9655C15.9935 15.9428 15.9437 15.9094 15.9018 15.8674C15.8599 15.8254 15.8267 15.7755 15.8041 15.7206C15.7814 15.6657 15.7699 15.6069 15.7701 15.5475V0.451282C15.7701 0.331596 15.8176 0.216811 15.9022 0.13218C15.9869 0.0475497 16.1016 6.57559e-07 16.2213 6.57559e-07H18.9757C19.0954 6.57559e-07 19.2102 0.0475497 19.2948 0.13218C19.3794 0.216811 19.427 0.331596 19.427 0.451282V12.4796H24.6898C24.7491 12.4796 24.8078 12.4912 24.8625 12.5139C24.9173 12.5366 24.967 12.5698 25.0089 12.6117C25.0508 12.6536 25.0841 12.7034 25.1067 12.7581C25.1294 12.8129 25.1411 12.8716 25.1411 12.9308ZM36.1119 12.9308V15.5475C36.112 15.6069 36.1005 15.6657 36.0779 15.7206C36.0553 15.7755 36.0221 15.8254 35.9801 15.8674C35.9382 15.9094 35.8884 15.9428 35.8336 15.9655C35.7788 15.9883 35.72 16 35.6606 16H27.1921C27.1328 16 27.074 15.9883 27.0191 15.9655C26.9643 15.9428 26.9145 15.9094 26.8726 15.8674C26.8307 15.8254 26.7974 15.7755 26.7748 15.7206C26.7522 15.6657 26.7407 15.6069 26.7408 15.5475V0.451282C26.7408 0.331596 26.7884 0.216811 26.873 0.13218C26.9576 0.0475497 27.0724 6.57559e-07 27.1921 6.57559e-07H29.9465C30.0662 6.57559e-07 30.181 0.0475497 30.2656 0.13218C30.3502 0.216811 30.3978 0.331596 30.3978 0.451282V12.4796H35.6606C35.7199 12.4796 35.7785 12.4912 35.8333 12.5139C35.8881 12.5366 35.9378 12.5698 35.9797 12.6117C36.0216 12.6536 36.0549 12.7034 36.0775 12.7581C36.1002 12.8129 36.1119 12.8716 36.1119 12.9308ZM50.1912 4.86689V7.62004C50.1913 7.67941 50.1798 7.73823 50.1572 7.79312C50.1346 7.84801 50.1014 7.89791 50.0594 7.93994C50.0175 7.98198 49.9677 8.01532 49.9129 8.03808C49.8581 8.06083 49.7993 8.07255 49.7399 8.07255H45.7805V12.032C45.7805 12.0913 45.7688 12.1501 45.746 12.2049C45.7233 12.2598 45.6899 12.3096 45.6479 12.3515C45.6058 12.3934 45.556 12.4266 45.5011 12.4493C45.4462 12.4719 45.3873 12.4834 45.328 12.4832H42.5748C42.5156 12.4832 42.4569 12.4716 42.4021 12.4489C42.3474 12.4262 42.2976 12.393 42.2557 12.3511C42.2138 12.3092 42.1806 12.2594 42.1579 12.2047C42.1352 12.1499 42.1236 12.0912 42.1236 12.032V8.06394H38.1629C38.0431 8.06361 37.9283 8.0158 37.8437 7.93097C37.7591 7.84615 37.7116 7.73124 37.7116 7.61144V4.86689C37.7116 4.74721 37.7592 4.63242 37.8438 4.54779C37.9284 4.46316 38.0432 4.41562 38.1629 4.41562H42.1236V0.451282C42.1236 0.392019 42.1352 0.333333 42.1579 0.278582C42.1806 0.223831 42.2138 0.174085 42.2557 0.13218C42.2976 0.0902755 42.3474 0.0570302 42.4021 0.0343514C42.4569 0.0116727 42.5156 6.57559e-07 42.5748 6.57559e-07H45.328C45.4478 2.15247e-07 45.5627 0.0475098 45.6475 0.132105C45.7323 0.216701 45.7802 0.331483 45.7805 0.451282V4.41193H49.7399C49.7995 4.41192 49.8585 4.42372 49.9135 4.44663C49.9685 4.46954 50.0184 4.50311 50.0603 4.5454C50.1023 4.5877 50.1354 4.63789 50.1579 4.69307C50.1804 4.74825 50.1917 4.80732 50.1912 4.86689Z" fill="black"/>
</g>
<defs>
<clipPath id="clip0_4600_46196">
<rect width="50.5" height="16" fill="white"/>
</clipPath>
</defs>
</svg>
