<svg width="15" height="14" viewBox="0 0 15 14" fill="none" xmlns="http://www.w3.org/2000/svg">
<path d="M7.49967 0.333252C7.13148 0.333252 6.83301 0.631729 6.83301 0.999919V2.99992C6.83301 3.36811 7.13148 3.66659 7.49967 3.66659C7.86786 3.66659 8.16634 3.36811 8.16634 2.99992V0.999919C8.16634 0.631729 7.86786 0.333252 7.49967 0.333252Z" fill="#23262F"/>
<path d="M7.49967 10.3333C7.13148 10.3333 6.83301 10.6317 6.83301 10.9999V12.9999C6.83301 13.3681 7.13148 13.6666 7.49967 13.6666C7.86786 13.6666 8.16634 13.3681 8.16634 12.9999V10.9999C8.16634 10.6317 7.86786 10.3333 7.49967 10.3333Z" fill="#23262F"/>
<path d="M13.4997 6.33325C13.8679 6.33325 14.1663 6.63173 14.1663 6.99992C14.1663 7.36811 13.8679 7.66659 13.4997 7.66659H11.4997C11.1315 7.66659 10.833 7.36811 10.833 6.99992C10.833 6.63173 11.1315 6.33325 11.4997 6.33325H13.4997Z" fill="#23262F"/>
<path d="M4.16634 6.99992C4.16634 6.63173 3.86786 6.33325 3.49967 6.33325H1.49967C1.13148 6.33325 0.833008 6.63173 0.833008 6.99992C0.833008 7.36811 1.13148 7.66659 1.49967 7.66659H3.49967C3.86786 7.66659 4.16634 7.36811 4.16634 6.99992Z" fill="#23262F"/>
<path d="M11.2709 2.28594C11.5313 2.02559 11.9534 2.02559 12.2138 2.28594C12.4741 2.54629 12.4741 2.9684 12.2138 3.22875L10.7995 4.64296C10.5392 4.90331 10.1171 4.90331 9.85673 4.64296C9.59638 4.38261 9.59638 3.9605 9.85673 3.70015L11.2709 2.28594Z" fill="#23262F"/>
<path d="M5.14263 9.3569C4.88228 9.09655 4.46017 9.09655 4.19982 9.3569L2.78561 10.7711C2.52526 11.0315 2.52526 11.4536 2.78561 11.7139C3.04596 11.9743 3.46807 11.9743 3.72841 11.7139L5.14263 10.2997C5.40298 10.0394 5.40298 9.61725 5.14263 9.3569Z" fill="#23262F"/>
<path d="M12.2137 10.7712C12.4741 11.0315 12.4741 11.4536 12.2137 11.714C11.9534 11.9743 11.5313 11.9743 11.2709 11.714L9.85671 10.2998C9.59636 10.0394 9.59636 9.61733 9.85671 9.35698C10.1171 9.09663 10.5392 9.09663 10.7995 9.35698L12.2137 10.7712Z" fill="#23262F"/>
<path d="M5.14269 4.64287C5.40304 4.38252 5.40304 3.96041 5.14269 3.70006L3.72848 2.28585C3.46813 2.0255 3.04602 2.0255 2.78567 2.28585C2.52532 2.5462 2.52532 2.96831 2.78567 3.22866L4.19988 4.64287C4.46023 4.90322 4.88234 4.90322 5.14269 4.64287Z" fill="#23262F"/>
</svg>
