<svg width="176" height="222" viewBox="0 0 176 222" fill="none" xmlns="http://www.w3.org/2000/svg">
<path d="M86.2091 188.56C133.82 188.56 172.418 149.961 172.418 102.181C172.418 54.4001 133.65 15.8015 86.2091 15.8015C38.5986 15.8015 0 54.4001 0 102.181C0 149.961 38.5986 188.56 86.2091 188.56Z" fill="#BBDFFF"/>
<g filter="url(#filter0_d_4600_47721)">
<path d="M150.334 161.191C134.582 178.299 112.012 189 86.9432 189C66.9365 189 48.5212 182.184 33.8926 170.736V29.7583C33.8926 15.0948 37.6476 11.2895 42.332 11.2895H126.057L150.334 35.6512V161.191Z" fill="url(#paint0_linear_4600_47721)"/>
</g>
<path d="M125.324 11V32.3617C125.324 34.0185 126.667 35.3617 128.324 35.3617H151.148" fill="#E6E8EC"/>
<path d="M42.2307 144.348L33.1964 161.136L24.1621 144.348V63.6894V52.0122C24.1621 50.3707 25.5005 49.0276 27.1364 49.0276H39.2564C40.8923 49.0276 42.2307 50.3707 42.2307 52.0122V144.348Z" fill="url(#paint1_linear_4600_47721)"/>
<path fill-rule="evenodd" clip-rule="evenodd" d="M24.1621 61.3593H42.2307V64.4519H24.1621V61.3593Z" fill="#BBDFFF"/>
<path fill-rule="evenodd" clip-rule="evenodd" d="M24.1621 142.801H42.2307V145.893H24.1621V142.801Z" fill="#BBDFFF"/>
<path d="M73.3847 162.988H50.5347C49.6821 162.988 49 162.081 49 160.994C49 159.906 49.6821 159 50.5347 159H73.3847C74.2373 159 74.9194 159.906 74.9194 160.994C74.9194 162.263 74.2373 162.988 73.3847 162.988Z" fill="#E6E8EC"/>
<path d="M102.607 47.1462H51.2194C50.0243 47.1462 49 46.226 49 45.1524C49 44.0788 50.0243 43.1586 51.2194 43.1586H102.607C103.802 43.1586 104.826 44.0788 104.826 45.1524C104.826 46.226 103.802 47.1462 102.607 47.1462Z" fill="#E6E8EC"/>
<path d="M70.8894 59.1091H51.2059C50.0181 59.1091 49 58.1888 49 57.1153C49 56.0417 50.0181 55.1215 51.2059 55.1215H70.7197C71.9075 55.1215 72.9256 56.0417 72.9256 57.1153C72.9256 58.1888 71.9075 59.1091 70.8894 59.1091Z" fill="#E6E8EC"/>
<path d="M137.011 128.892H77.0892H70.485H50.5112C49.7058 128.892 48.9004 129.723 48.9004 130.886C48.9004 131.883 49.5447 132.88 50.5112 132.88H70.485H77.0892H137.011C137.816 132.88 138.621 132.049 138.621 130.886C138.46 129.723 137.816 128.892 137.011 128.892Z" fill="#E6E8EC"/>
<path d="M137.008 114.935H114.739H107.155H50.5141C49.7072 114.935 48.9004 115.766 48.9004 116.929C48.9004 117.926 49.5459 118.923 50.5141 118.923H107.155H114.739H137.008C137.815 118.923 138.621 118.092 138.621 116.929C138.46 115.766 137.815 114.935 137.008 114.935Z" fill="#E6E8EC"/>
<path d="M137.154 100.979H131.367H125.58H50.5079C49.7042 100.979 48.9004 101.81 48.9004 102.973C48.9004 103.97 49.5434 104.967 50.5079 104.967H125.58H132.01H136.993C137.797 104.967 138.601 104.136 138.601 102.973C138.761 101.976 137.958 100.979 137.154 100.979Z" fill="#E6E8EC"/>
<path d="M137.028 87.0223H118.382H113.761H50.494C49.6972 87.0223 48.9004 87.8531 48.9004 89.0161C48.9004 90.013 49.5378 91.0099 50.494 91.0099H113.761H118.382H136.868C137.984 91.0099 138.621 90.1792 138.621 89.0161C138.621 88.0192 137.984 87.0223 137.028 87.0223Z" fill="#E6E8EC"/>
<path d="M153.5 163C165.926 163 176 152.926 176 140.5C176 128.074 165.926 118 153.5 118C141.074 118 131 128.074 131 140.5C131 152.926 141.074 163 153.5 163Z" fill="#0099FF"/>
<path d="M149.492 150.377C149.195 150.378 148.9 150.319 148.626 150.206C148.351 150.092 148.101 149.925 147.891 149.715L141.248 143.082C140.824 142.658 140.586 142.083 140.586 141.484C140.586 140.884 140.825 140.31 141.249 139.886C141.674 139.462 142.249 139.224 142.849 139.224C143.45 139.223 144.026 139.461 144.45 139.884L149.492 144.918L162.158 132.272C162.368 132.062 162.618 131.896 162.893 131.782C163.167 131.668 163.462 131.61 163.759 131.61C164.057 131.61 164.351 131.668 164.626 131.782C164.901 131.896 165.15 132.062 165.361 132.272C165.571 132.482 165.738 132.731 165.852 133.006C165.965 133.28 166.024 133.574 166.024 133.871C166.024 134.168 165.965 134.462 165.852 134.736C165.738 135.011 165.571 135.26 165.361 135.47L151.094 149.715C150.884 149.925 150.634 150.092 150.359 150.206C150.084 150.319 149.79 150.378 149.492 150.377Z" fill="white"/>
<defs>
<filter id="filter0_d_4600_47721" x="11.8926" y="0.28949" width="160.441" height="221.711" filterUnits="userSpaceOnUse" color-interpolation-filters="sRGB">
<feFlood flood-opacity="0" result="BackgroundImageFix"/>
<feColorMatrix in="SourceAlpha" type="matrix" values="0 0 0 0 0 0 0 0 0 0 0 0 0 0 0 0 0 0 127 0" result="hardAlpha"/>
<feOffset dy="11"/>
<feGaussianBlur stdDeviation="11"/>
<feColorMatrix type="matrix" values="0 0 0 0 0.397708 0 0 0 0 0.47749 0 0 0 0 0.575 0 0 0 0.27 0"/>
<feBlend mode="normal" in2="BackgroundImageFix" result="effect1_dropShadow_4600_47721"/>
<feBlend mode="normal" in="SourceGraphic" in2="effect1_dropShadow_4600_47721" result="shape"/>
</filter>
<linearGradient id="paint0_linear_4600_47721" x1="92.0755" y1="17.4102" x2="92.0755" y2="190.808" gradientUnits="userSpaceOnUse">
<stop stop-color="white"/>
<stop offset="0.9964" stop-color="white"/>
</linearGradient>
<linearGradient id="paint1_linear_4600_47721" x1="32.484" y1="49.2038" x2="32.484" y2="144.301" gradientUnits="userSpaceOnUse">
<stop/>
<stop offset="1"/>
</linearGradient>
</defs>
</svg>
