<svg width="173" height="207" viewBox="0 0 173 207" fill="none" xmlns="http://www.w3.org/2000/svg">
<path d="M86.2091 173.56C133.82 173.56 172.418 134.961 172.418 87.1807C172.418 39.4001 133.65 0.801514 86.2091 0.801514C38.5986 0.801514 0 39.4001 0 87.1807C0 134.961 38.5986 173.56 86.2091 173.56Z" fill="#BBDFFF"/>
<g filter="url(#filter0_d_5093_52752)">
<path d="M120.806 63.006V48.9724H51.7939V63.0063C51.7939 66.5006 52.5272 69.9559 53.9463 73.1491C55.3654 76.3422 57.4387 79.202 60.0323 81.5436L84.5934 103.718L60.0323 125.893C57.4387 128.235 55.3654 131.095 53.9463 134.288C52.5272 137.481 51.7939 140.936 51.7939 144.431V158.465H120.806V144.431C120.806 140.937 120.073 137.481 118.654 134.288C117.235 131.095 115.162 128.235 112.568 125.894L88.0069 103.718L112.568 81.5432C115.162 79.2016 117.235 76.3418 118.654 73.1487C120.073 69.9556 120.806 66.5002 120.806 63.006Z" fill="white"/>
<path d="M69.4854 90.0764C77.2346 81.3275 86.3019 98.7127 103.118 90.0764L84.203 100.652L69.4854 90.0764Z" fill="#417A93"/>
<path opacity="0.2" d="M69.4854 90.0764C77.2346 81.3275 86.3019 98.7127 103.118 90.0764L84.203 100.652L69.4854 90.0764Z" fill="#0197FD"/>
<path opacity="0.2" d="M95.2946 90.5448C97.106 90.5534 98.8935 90.1312 100.51 89.3129C102.126 88.4946 103.524 87.3038 104.589 85.8386C111.819 75.7712 115.709 63.6896 115.711 51.2951V48.9724H106.844V51.2951C106.844 63.8269 102.872 76.0363 95.4974 86.1688C94.9946 86.8595 94.4996 87.5556 94.0122 88.257C93.8608 88.4757 93.7721 88.7317 93.7557 88.9972C93.7393 89.2627 93.7959 89.5277 93.9194 89.7633C94.0428 89.999 94.2283 90.1964 94.4559 90.3341C94.6835 90.4719 94.9445 90.5447 95.2105 90.5448H95.2946Z" fill="#E6E8EC"/>
<path d="M122.06 34H50.5383C49.1365 34 48 35.1365 48 36.5383V46.9969C48 48.3988 49.1365 49.5353 50.5383 49.5353H122.06C123.461 49.5353 124.598 48.3988 124.598 46.9969V36.5383C124.598 35.1365 123.461 34 122.06 34Z" fill="black"/>
<path d="M122.06 158.465H50.5383C49.1365 158.465 48 159.601 48 161.003V171.462C48 172.864 49.1365 174 50.5383 174H122.06C123.461 174 124.598 172.864 124.598 171.462V161.003C124.598 159.601 123.461 158.465 122.06 158.465Z" fill="#E6E8EC"/>
<path d="M122.06 158.465H50.5383C49.1365 158.465 48 159.601 48 161.003V171.462C48 172.864 49.1365 174 50.5383 174H122.06C123.461 174 124.598 172.864 124.598 171.462V161.003C124.598 159.601 123.461 158.465 122.06 158.465Z" fill="black"/>
<path d="M109.54 151.248L95.937 142.07C93.8081 140.634 92.0113 138.758 90.6672 136.57C89.323 134.382 88.4628 131.931 88.1442 129.383H88.1238C88.0463 128.605 88.0055 127.853 88.0055 127.153V103.719L103.115 90.0766C90.0555 85.4518 82.6001 99.6303 69.4822 90.0766L84.5962 103.719V127.15C84.5961 127.897 84.5497 128.642 84.4571 129.383V129.383C84.1384 131.931 83.2781 134.382 81.934 136.57C80.5899 138.758 78.7931 140.634 76.6642 142.07L63.0613 151.248C61.88 152.045 60.9123 153.12 60.2434 154.378C59.5744 155.636 59.2246 157.04 59.2246 158.465H113.377C113.377 157.04 113.027 155.636 112.358 154.378C111.689 153.12 110.721 152.045 109.54 151.248Z" fill="#0197FD"/>
<path opacity="0.2" d="M95.2105 116.892C94.9444 116.892 94.6835 116.965 94.4559 117.103C94.2283 117.241 94.0428 117.438 93.9193 117.674C93.7959 117.909 93.7393 118.174 93.7557 118.44C93.7721 118.705 93.8608 118.961 94.0122 119.18C94.4998 119.881 94.9949 120.577 95.4973 121.268C102.872 131.401 106.844 143.61 106.844 156.142V158.465H115.711V156.142C115.709 143.747 111.819 131.666 104.589 121.598C103.524 120.133 102.126 118.942 100.51 118.124C98.8936 117.306 97.1061 116.883 95.2947 116.892L95.2105 116.892Z" fill="#E6E8EC"/>
</g>
<defs>
<filter id="filter0_d_5093_52752" x="26" y="23" width="120.598" height="184" filterUnits="userSpaceOnUse" color-interpolation-filters="sRGB">
<feFlood flood-opacity="0" result="BackgroundImageFix"/>
<feColorMatrix in="SourceAlpha" type="matrix" values="0 0 0 0 0 0 0 0 0 0 0 0 0 0 0 0 0 0 127 0" result="hardAlpha"/>
<feOffset dy="11"/>
<feGaussianBlur stdDeviation="11"/>
<feComposite in2="hardAlpha" operator="out"/>
<feColorMatrix type="matrix" values="0 0 0 0 0.0392157 0 0 0 0 0.341176 0 0 0 0 0.541176 0 0 0 0.2 0"/>
<feBlend mode="normal" in2="BackgroundImageFix" result="effect1_dropShadow_5093_52752"/>
<feBlend mode="normal" in="SourceGraphic" in2="effect1_dropShadow_5093_52752" result="shape"/>
</filter>
</defs>
</svg>
