<svg width="181" height="180" viewBox="0 0 181 180" fill="none" xmlns="http://www.w3.org/2000/svg">
<path d="M90.2512 180C139.981 180 180.502 139.646 180.502 90.0837C180.335 40.3535 139.981 -1.52588e-05 90.2512 -1.52588e-05C40.3535 -1.52588e-05 0 40.3535 0 89.9163C0 139.646 40.3535 180 90.2512 180Z" fill="#BBDFFF"/>
<g filter="url(#filter0_d_5237_52496)">
<rect x="28" y="53" width="125" height="73" rx="8" fill="white"/>
</g>
<path d="M133.182 86.5359H90.7844C89.2283 86.5359 87.8945 85.3377 87.8945 83.9398C87.8945 82.5419 89.2283 81.3438 90.7844 81.3438H133.182C134.738 81.3438 136.072 82.5419 136.072 83.9398C136.072 85.3377 134.738 86.5359 133.182 86.5359Z" fill="#E6E8EC"/>
<path d="M116.396 102.113H90.7668C89.2202 102.113 87.8945 100.914 87.8945 99.5165C87.8945 98.1186 89.2202 96.9204 90.7668 96.9204H116.175C117.722 96.9204 119.048 98.1186 119.048 99.5165C119.048 100.914 117.722 102.113 116.396 102.113Z" fill="#E6E8EC"/>
<path d="M59.2526 108.688C69.3203 108.688 77.4818 100.526 77.4818 90.4584C77.4818 80.3907 69.3203 72.2292 59.2526 72.2292C49.1849 72.2292 41.0234 80.3907 41.0234 90.4584C41.0234 100.526 49.1849 108.688 59.2526 108.688Z" fill="#BBDFFF"/>
<path d="M59.2539 91.5978C63.0293 91.5978 66.0898 88.5373 66.0898 84.7619C66.0898 80.9865 63.0293 77.9259 59.2539 77.9259C55.4785 77.9259 52.418 80.9865 52.418 84.7619C52.418 88.5373 55.4785 91.5978 59.2539 91.5978Z" fill="black"/>
<path d="M72.9232 102.996C69.6178 106.504 64.9696 108.687 59.821 108.687C54.6724 108.687 50.0241 106.504 46.7188 102.996C48.5439 97.6975 53.7203 93.8763 59.821 93.8763C65.9216 93.8763 71.0981 97.6975 72.9232 102.996Z" fill="black"/>
<path d="M153.137 162.416C165.363 162.416 175.274 152.343 175.274 139.916C175.274 127.49 165.363 117.416 153.137 117.416C140.911 117.416 131 127.49 131 139.916C131 152.343 140.911 162.416 153.137 162.416Z" fill="url(#paint0_linear_5237_52496)"/>
<path d="M154.641 130.16L161.403 137.387C162.199 138.238 162.199 139.725 161.403 140.576C160.608 141.426 159.215 141.426 158.32 140.576L155.238 137.387V149.078C155.238 150.353 154.243 151.416 153.05 151.416C151.856 151.416 150.862 150.353 150.862 149.078V137.387L147.779 140.576C146.983 141.426 145.591 141.426 144.696 140.576C144.199 140.044 144 139.513 144 138.981C144 138.45 144.199 137.706 144.696 137.387L151.459 130.16C151.757 129.841 152.453 129.416 152.95 129.416C153.448 129.416 154.343 129.629 154.641 130.16Z" fill="white"/>
<defs>
<filter id="filter0_d_5237_52496" x="6" y="42" width="169" height="117" filterUnits="userSpaceOnUse" color-interpolation-filters="sRGB">
<feFlood flood-opacity="0" result="BackgroundImageFix"/>
<feColorMatrix in="SourceAlpha" type="matrix" values="0 0 0 0 0 0 0 0 0 0 0 0 0 0 0 0 0 0 127 0" result="hardAlpha"/>
<feOffset dy="11"/>
<feGaussianBlur stdDeviation="11"/>
<feComposite in2="hardAlpha" operator="out"/>
<feColorMatrix type="matrix" values="0 0 0 0 0.0392157 0 0 0 0 0.341176 0 0 0 0 0.541176 0 0 0 0.27 0"/>
<feBlend mode="normal" in2="BackgroundImageFix" result="effect1_dropShadow_5237_52496"/>
<feBlend mode="normal" in="SourceGraphic" in2="effect1_dropShadow_5237_52496" result="shape"/>
</filter>
<linearGradient id="paint0_linear_5237_52496" x1="130.98" y1="139.921" x2="175.282" y2="139.921" gradientUnits="userSpaceOnUse">
<stop stop-color="#0197FD"/>
<stop offset="1" stop-color="#0197FD"/>
</linearGradient>
</defs>
</svg>
