<svg width="181" height="216" viewBox="0 0 181 216" fill="none" xmlns="http://www.w3.org/2000/svg">
<path d="M90.2512 191.584C139.981 191.584 180.502 151.23 180.502 101.667C180.335 51.9372 139.981 11.5837 90.2512 11.5837C40.3535 11.5837 0 51.9372 0 101.5C0 151.23 40.3535 191.584 90.2512 191.584Z" fill="#BBDFFF"/>
<g filter="url(#filter0_d_5237_52378)">
<path d="M153.559 35V168.248C153.559 176.195 147.256 182.497 139.31 182.497H41.2135C33.2671 182.497 26.9648 176.195 26.9648 168.248V25.4878C26.9648 17.5414 33.2671 11.2392 41.2135 11.2392H128.316C130 17.5 127.534 14.0339 130 16.5L141 29.5C143.466 32.2401 146.5 32 153.559 35Z" fill="url(#paint0_linear_5237_52378)"/>
</g>
<path d="M128 11V32.3617C128 34.0185 129.343 35.3617 131 35.3617H153.824" fill="#E6E8EC"/>
<path d="M71.3847 164.988H48.5347C47.6821 164.988 47 164.081 47 162.994C47 161.906 47.6821 161 48.5347 161H71.3847C72.2373 161 72.9194 161.906 72.9194 162.994C72.9194 164.263 72.2373 164.988 71.3847 164.988Z" fill="#E6E8EC"/>
<path d="M98.5133 49.1462H47.1257C45.9306 49.1462 44.9062 48.226 44.9062 47.1524C44.9062 46.0788 45.9306 45.1586 47.1257 45.1586H98.5133C99.7083 45.1586 100.733 46.0788 100.733 47.1524C100.733 48.226 99.7083 49.1462 98.5133 49.1462Z" fill="#E6E8EC"/>
<path d="M66.7956 61.1091H47.1122C45.9244 61.1091 44.9062 60.1888 44.9062 59.1153C44.9062 58.0417 45.9244 57.1215 47.1122 57.1215H66.6259C67.8137 57.1215 68.8319 58.0417 68.8319 59.1153C68.8319 60.1888 67.8137 61.1091 66.7956 61.1091Z" fill="#E6E8EC"/>
<path d="M135.013 130.892H75.0912H68.4869H48.5131C47.7077 130.892 46.9023 131.723 46.9023 132.886C46.9023 133.883 47.5467 134.88 48.5131 134.88H68.4869H75.0912H135.013C135.818 134.88 136.623 134.049 136.623 132.886C136.462 131.723 135.818 130.892 135.013 130.892Z" fill="#E6E8EC"/>
<path d="M135.01 116.935H112.741H105.156H48.516C47.7092 116.935 46.9023 117.766 46.9023 118.929C46.9023 119.926 47.5478 120.923 48.516 120.923H105.156H112.741H135.01C135.817 120.923 136.623 120.092 136.623 118.929C136.462 117.766 135.817 116.935 135.01 116.935Z" fill="#E6E8EC"/>
<path d="M135.156 102.979H129.369H123.582H48.5099C47.7061 102.979 46.9023 103.81 46.9023 104.973C46.9023 105.97 47.5454 106.967 48.5099 106.967H123.582H130.012H134.995C135.799 106.967 136.603 106.136 136.603 104.973C136.763 103.976 135.96 102.979 135.156 102.979Z" fill="#E6E8EC"/>
<path d="M135.03 89.0223H116.384H111.763H48.496C47.6992 89.0223 46.9023 89.8531 46.9023 91.0161C46.9023 92.013 47.5398 93.0099 48.496 93.0099H111.763H116.384H134.87C135.986 93.0099 136.623 92.1792 136.623 91.0161C136.623 90.0192 135.986 89.0223 135.03 89.0223Z" fill="#E6E8EC"/>
<path d="M153.137 174C165.363 174 175.274 163.926 175.274 151.5C175.274 139.074 165.363 129 153.137 129C140.911 129 131 139.074 131 151.5C131 163.926 140.911 174 153.137 174Z" fill="url(#paint1_linear_5237_52378)"/>
<path d="M154.641 141.744L161.403 148.971C162.199 149.821 162.199 151.309 161.403 152.159C160.608 153.01 159.215 153.01 158.32 152.159L155.238 148.971V160.662C155.238 161.937 154.243 163 153.05 163C151.856 163 150.862 161.937 150.862 160.662V148.971L147.779 152.159C146.983 153.01 145.591 153.01 144.696 152.159C144.199 151.628 144 151.097 144 150.565C144 150.034 144.199 149.29 144.696 148.971L151.459 141.744C151.757 141.425 152.453 141 152.95 141C153.448 141 154.343 141.213 154.641 141.744Z" fill="white"/>
<defs>
<filter id="filter0_d_5237_52378" x="4.96484" y="0.239166" width="170.594" height="215.258" filterUnits="userSpaceOnUse" color-interpolation-filters="sRGB">
<feFlood flood-opacity="0" result="BackgroundImageFix"/>
<feColorMatrix in="SourceAlpha" type="matrix" values="0 0 0 0 0 0 0 0 0 0 0 0 0 0 0 0 0 0 127 0" result="hardAlpha"/>
<feOffset dy="11"/>
<feGaussianBlur stdDeviation="11"/>
<feColorMatrix type="matrix" values="0 0 0 0 0.397708 0 0 0 0 0.47749 0 0 0 0 0.575 0 0 0 0.27 0"/>
<feBlend mode="normal" in2="BackgroundImageFix" result="effect1_dropShadow_5237_52378"/>
<feBlend mode="normal" in="SourceGraphic" in2="effect1_dropShadow_5237_52378" result="shape"/>
</filter>
<linearGradient id="paint0_linear_5237_52378" x1="90.2204" y1="7.27781" x2="90.2204" y2="184.343" gradientUnits="userSpaceOnUse">
<stop stop-color="white"/>
<stop offset="0.9964" stop-color="white"/>
</linearGradient>
<linearGradient id="paint1_linear_5237_52378" x1="130.98" y1="151.505" x2="175.282" y2="151.505" gradientUnits="userSpaceOnUse">
<stop stop-color="#0197FD"/>
<stop offset="1" stop-color="#0197FD"/>
</linearGradient>
</defs>
</svg>
