<svg width="181" height="180" viewBox="0 0 181 180" fill="none" xmlns="http://www.w3.org/2000/svg">
<path d="M90.2512 180C139.981 180 180.502 139.646 180.502 90.0837C180.335 40.3535 139.981 -1.52588e-05 90.2512 -1.52588e-05C40.3535 -1.52588e-05 0 40.3535 0 89.9163C0 139.646 40.3535 180 90.2512 180Z" fill="#BBDFFF"/>
<g filter="url(#filter0_d_5237_52527)">
<rect x="28" y="53" width="125" height="73" rx="8" fill="white"/>
</g>
<path d="M133.182 86.5359H90.7844C89.2283 86.5359 87.8945 85.3377 87.8945 83.9398C87.8945 82.5419 89.2283 81.3438 90.7844 81.3438H133.182C134.738 81.3438 136.072 82.5419 136.072 83.9398C136.072 85.3377 134.738 86.5359 133.182 86.5359Z" fill="#E6E8EC"/>
<path d="M116.396 102.113H90.7668C89.2202 102.113 87.8945 100.914 87.8945 99.5165C87.8945 98.1186 89.2202 96.9204 90.7668 96.9204H116.175C117.722 96.9204 119.048 98.1186 119.048 99.5165C119.048 100.914 117.722 102.113 116.396 102.113Z" fill="#E6E8EC"/>
<path d="M59.2526 108.688C69.3203 108.688 77.4818 100.526 77.4818 90.4584C77.4818 80.3907 69.3203 72.2292 59.2526 72.2292C49.1849 72.2292 41.0234 80.3907 41.0234 90.4584C41.0234 100.526 49.1849 108.688 59.2526 108.688Z" fill="#BBDFFF"/>
<path d="M59.2539 91.5978C63.0293 91.5978 66.0898 88.5373 66.0898 84.7619C66.0898 80.9865 63.0293 77.9259 59.2539 77.9259C55.4785 77.9259 52.418 80.9865 52.418 84.7619C52.418 88.5373 55.4785 91.5978 59.2539 91.5978Z" fill="black"/>
<path d="M72.9232 102.996C69.6178 106.504 64.9696 108.687 59.821 108.687C54.6724 108.687 50.0241 106.504 46.7188 102.996C48.5439 97.6975 53.7203 93.8763 59.821 93.8763C65.9216 93.8763 71.0981 97.6975 72.9232 102.996Z" fill="black"/>
<path d="M153.5 162C165.926 162 176 151.926 176 139.5C176 127.074 165.926 117 153.5 117C141.074 117 131 127.074 131 139.5C131 151.926 141.074 162 153.5 162Z" fill="#0099FF"/>
<path d="M149.492 149.377C149.195 149.378 148.9 149.319 148.626 149.206C148.351 149.092 148.101 148.925 147.891 148.715L141.248 142.082C140.824 141.658 140.586 141.083 140.586 140.484C140.586 139.884 140.825 139.31 141.249 138.886C141.674 138.462 142.249 138.224 142.849 138.224C143.45 138.223 144.026 138.461 144.45 138.884L149.492 143.918L162.158 131.272C162.368 131.062 162.618 130.896 162.893 130.782C163.167 130.668 163.462 130.61 163.759 130.61C164.057 130.61 164.351 130.668 164.626 130.782C164.901 130.896 165.15 131.062 165.361 131.272C165.571 131.482 165.738 131.731 165.852 132.006C165.965 132.28 166.024 132.574 166.024 132.871C166.024 133.168 165.965 133.462 165.852 133.736C165.738 134.011 165.571 134.26 165.361 134.47L151.094 148.715C150.884 148.925 150.634 149.092 150.359 149.206C150.084 149.319 149.79 149.378 149.492 149.377Z" fill="white"/>
<defs>
<filter id="filter0_d_5237_52527" x="6" y="42" width="169" height="117" filterUnits="userSpaceOnUse" color-interpolation-filters="sRGB">
<feFlood flood-opacity="0" result="BackgroundImageFix"/>
<feColorMatrix in="SourceAlpha" type="matrix" values="0 0 0 0 0 0 0 0 0 0 0 0 0 0 0 0 0 0 127 0" result="hardAlpha"/>
<feOffset dy="11"/>
<feGaussianBlur stdDeviation="11"/>
<feComposite in2="hardAlpha" operator="out"/>
<feColorMatrix type="matrix" values="0 0 0 0 0.0392157 0 0 0 0 0.341176 0 0 0 0 0.541176 0 0 0 0.27 0"/>
<feBlend mode="normal" in2="BackgroundImageFix" result="effect1_dropShadow_5237_52527"/>
<feBlend mode="normal" in="SourceGraphic" in2="effect1_dropShadow_5237_52527" result="shape"/>
</filter>
</defs>
</svg>
