<svg width="322" height="355" viewBox="0 0 322 355" fill="none" xmlns="http://www.w3.org/2000/svg">
<ellipse cx="162.699" cy="147.747" rx="144.15" ry="143.244" fill="#BBDFFF"/>
<path d="M164.141 350.78H212.436C212.436 350.78 209.463 348.416 187.636 347.307C165.809 346.198 164.141 350.78 164.141 350.78Z" fill="#0A0909"/>
<path d="M209.762 350.78H74.9551C74.9551 350.78 81.7299 343.306 206.64 343.306C331.55 343.306 209.762 350.78 209.762 350.78Z" fill="#E6E8EC"/>
<path d="M177.281 308.532L181.502 324.622L203.734 330.829L202.651 306.089L177.281 308.532Z" fill="white"/>
<path d="M141.645 305.626L148.284 322.131L165.833 328.982L168.025 303.082L141.645 305.626Z" fill="white"/>
<path d="M121.477 155.036C121.942 182.61 124.173 210.126 128.157 237.418C132.886 268.856 140.073 305.771 140.073 305.771L169.697 302.915V269.765L175.669 308.684L202.644 306.086C202.644 306.086 197.002 226.017 195.971 203.908C194.941 181.799 197.985 149.153 197.985 149.153C197.985 149.153 145.967 147.011 121.477 155.036Z" fill="white"/>
<path d="M128.534 27.3277C125.129 27.0257 121.866 25.829 119.081 23.8603C115.089 20.7428 115.488 17.3417 119.595 16.9482C121.984 16.75 124.207 15.656 125.814 13.8885C125.814 13.8885 123.816 14.1706 120.166 12.0744C116.516 9.97816 118.283 8.72974 120.734 8.78616C122.321 8.80768 123.906 8.67492 125.467 8.38977C124.693 7.18114 124.062 5.88799 123.586 4.53589C122.843 2.38184 128.378 3.97164 131.457 4.53589C134.536 5.10015 140.585 -0.119232 144.803 0.00208338C149.021 0.123399 150.279 5.1594 150.279 5.1594C151.43 4.16058 151.839 2.5579 151.305 1.13483C152.598 2.34797 152.837 4.30495 151.873 5.78996C151.873 5.78996 154.725 6.30061 155.182 3.91944C155.294 5.42546 154.349 6.81016 152.9 7.26408C156.624 8.56036 159.102 12.071 159.061 15.9917C159.288 23.0196 157.419 33.5557 154.047 35.5433C150.675 37.5309 128.534 27.3277 128.534 27.3277Z" fill="#0A0909"/>
<path d="M136.84 51.9734C128.627 53.7861 112.502 59.8321 108.395 63.3079C104.288 66.7838 90.1414 104.873 95.4654 124.822C100.79 144.771 117.978 147.473 117.978 147.473C117.978 147.473 120.108 155.776 121.477 155.035C122.845 154.294 139.123 150.521 162.395 150.063C185.668 149.604 200.729 150.627 202.402 147.473C204.076 144.318 203.467 137.999 203.467 137.999C203.467 137.999 228.871 126.636 230.088 113.03C231.304 99.4247 212.473 56.6553 195.42 52.8762C178.368 49.0971 136.84 51.9734 136.84 51.9734Z" fill="#424242"/>
<path d="M151.539 59.8504L159.792 151.271" stroke="#0A0909" stroke-width="0.5" stroke-linecap="round" stroke-linejoin="round"/>
<path d="M121.478 155.035L118.283 86.7121" stroke="#0A0909" stroke-width="0.5" stroke-linecap="round" stroke-linejoin="round"/>
<path d="M156.066 38.6537C151.695 32.9857 152.68 29.2447 152.68 29.2447C155.646 26.8635 157.814 20.3464 154.1 18.8158C152.043 17.9161 149.639 18.8057 148.675 20.8231C146.15 16.1873 140.602 14.0691 135.602 15.8312C130.602 17.5933 127.637 22.7107 128.616 27.8919H128.609C128.985 32.2511 130.518 36.4333 133.051 40.0121C134.516 41.7264 136.745 42.602 138.994 42.3468L138.984 42.3679L139.301 47.7199C140.788 50.7519 143.19 53.2482 146.171 54.862C151.14 57.5253 151.533 59.8486 151.533 59.8486C152.492 55.6717 153.731 51.5633 155.242 47.5506C157.529 41.7134 156.066 38.6537 156.066 38.6537Z" fill="white"/>
<path d="M186.164 69.6561L197.806 151.272" stroke="#0A0909" stroke-width="0.5" stroke-linecap="round" stroke-linejoin="round"/>
<path d="M128.435 25.2764C128.435 25.2764 138.816 24.7671 144.407 19.4391C142.856 21.7259 140.622 23.4707 138.018 24.4271C138.018 24.4271 140.699 24.54 145.377 20.0626C145.377 20.0626 145.148 23.0094 148.857 24.88C148.857 24.88 147.36 20.1994 151.128 18.6294C154.896 17.0594 138.699 12.0149 138.699 12.0149L129.115 16.8322L126.947 21.5932L128.435 25.2764Z" fill="#0A0909"/>
<path d="M138.99 42.3694C144.527 42.1479 147.793 35.7902 147.793 35.7902C147.793 35.7902 148.342 43.5783 139.244 46.6803L138.99 42.3694Z" fill="#0A0909"/>
<path d="M141.645 305.626L167.713 306.561L168.34 302.824L141.645 305.626Z" fill="#0A0909"/>
<path d="M177.281 308.532L202.811 307.807V305.939L177.281 308.532Z" fill="#0A0909"/>
<path d="M138.881 297.127L168.964 296.065" stroke="#0A0909" stroke-width="0.5" stroke-linecap="round" stroke-linejoin="round"/>
<path d="M175.232 301.831L201.555 301.326" stroke="#0A0909" stroke-width="0.5" stroke-linecap="round" stroke-linejoin="round"/>
<path d="M156.42 163.968L169.594 269.816" stroke="#0A0909" stroke-width="0.5" stroke-linecap="round" stroke-linejoin="round"/>
<path d="M158 175.499C158 175.499 151.821 177.05 149.316 163.968" stroke="#0A0909" stroke-width="0.5" stroke-linecap="round" stroke-linejoin="round"/>
<path d="M166.688 318.548L166.289 347.85L120.127 347.505C120.127 347.505 119.782 340.25 131.112 335.168C142.441 330.086 146.362 321.907 146.32 318.008L166.688 318.548Z" fill="#424242"/>
<path d="M120.128 347.505C120.128 347.505 120.148 346.937 120.184 346.703L158.701 345.737L156.705 347.78L120.128 347.505Z" fill="white"/>
<path d="M129.477 335.957C133.067 337.775 136.315 337.277 142.224 332.872C148.133 328.468 151.181 321.359 151.323 318.14C151.464 314.922 146.291 315.046 146.291 315.046C146.416 316.028 146.425 317.022 146.317 318.007C146.178 320.196 143.681 326.251 139.235 329.66C136.149 332.003 132.887 334.108 129.477 335.957H129.477Z" fill="white"/>
<path d="M133.18 333.807L139.067 337.302" stroke="#0A0909" stroke-width="0.5" stroke-linecap="round" stroke-linejoin="round"/>
<path d="M135.924 332.057L143.119 335.093" stroke="#0A0909" stroke-width="0.5" stroke-linecap="round" stroke-linejoin="round"/>
<path d="M138.903 329.916L146.405 331.482" stroke="#0A0909" stroke-width="0.5" stroke-linecap="round" stroke-linejoin="round"/>
<path d="M145.091 321.977C145.091 321.977 137.623 325.048 140.963 327.247C144.304 329.445 146.554 321.97 146.554 321.97C146.554 321.97 140.233 315.307 136 318.217C131.768 321.127 145.091 321.977 145.091 321.977L153.742 321.934" stroke="#0A0909" stroke-width="0.5" stroke-linecap="round" stroke-linejoin="round"/>
<path d="M176.115 319.402C176.606 326.351 173.871 332.885 164.301 336.582C154.732 340.279 152.103 343.617 150.172 349.297L205.539 349.341L202.435 317.111L176.115 319.402Z" fill="#424242"/>
<path d="M162.712 337.221C164.788 339.66 169.464 339.514 174.568 335.227C179.672 330.94 182.233 319.887 181.22 316.762C180.206 313.637 175.799 315.796 175.977 318.642C176.378 322.551 175.395 326.477 173.196 329.743C170.628 333.317 166.941 335.946 162.712 337.221Z" fill="white"/>
<path d="M150.164 349.297C150.326 348.626 150.571 347.977 150.892 347.365L205.214 346.097L205.527 349.345L150.164 349.297Z" fill="white"/>
<path d="M167.1 335.249L172.537 337.958" stroke="#0A0909" stroke-width="0.5" stroke-linecap="round" stroke-linejoin="round"/>
<path d="M170.595 332.761L177.172 334.735" stroke="#0A0909" stroke-width="0.5" stroke-linecap="round" stroke-linejoin="round"/>
<path d="M173.197 329.743L179.776 330.727" stroke="#0A0909" stroke-width="0.5" stroke-linecap="round" stroke-linejoin="round"/>
<path d="M175.982 321.792L182.95 321.79" stroke="#0A0909" stroke-width="0.5" stroke-linecap="round" stroke-linejoin="round"/>
<path d="M178.056 321.791C178.056 321.791 174.017 316.738 171.045 318.171C168.073 319.605 177.347 321.931 177.347 321.931C177.347 321.931 171.905 321.651 172.677 324.552C173.449 327.454 178.036 322.001 178.036 322.001" stroke="#0A0909" stroke-width="0.5" stroke-linecap="round" stroke-linejoin="round"/>
<path d="M151.703 26.7692C151.703 26.7692 149.24 21.2917 153.536 20.4213" stroke="#0A0909" stroke-width="0.5" stroke-linecap="round" stroke-linejoin="round"/>
<path d="M151.053 22.9196C152.1 22.4675 153.323 22.853 153.916 23.8224" stroke="#0A0909" stroke-width="0.5" stroke-linecap="round" stroke-linejoin="round"/>
<path d="M156.067 38.6542C159.24 41.7703 162.214 50.9677 162.214 50.9677C162.214 50.9677 161.094 70.6518 159.14 70.6067C157.187 70.5615 153.535 61.0411 151.539 59.8505C151.885 56.3488 152.79 52.9242 154.22 49.7052C156.503 44.8314 156.772 41.7703 156.067 38.6542Z" fill="black"/>
<path d="M139.307 47.7217L136.65 53.4461C136.65 53.4461 143.383 69.6558 145.664 69.6558C147.946 69.6558 148.402 61.8352 151.539 59.8505C151.539 59.8505 150.798 57.0743 146.177 54.8638C143.195 53.2507 140.794 50.7542 139.307 47.7217Z" fill="black"/>
<path d="M119.88 123.717L113.035 116.982" stroke="#0A0909" stroke-width="0.5" stroke-linecap="round" stroke-linejoin="round"/>
<ellipse cx="139.049" cy="29.0178" rx="0.941294" ry="0.935257" fill="#0A0909"/>
<ellipse cx="130.834" cy="30.633" rx="0.941294" ry="0.935257" fill="#0A0909"/>
<path d="M137.451 36.6127C138.571 36.4843 139.486 35.6659 139.733 34.5729" stroke="#0A0909" stroke-width="0.5" stroke-linecap="round" stroke-linejoin="round"/>
<path d="M204.062 338.251H226.234C226.234 338.251 236.121 305.23 249.811 304.88C263.501 304.53 249.05 339.08 250.419 338.764C251.787 338.448 267.912 307.614 276.582 310.269C285.253 312.923 271.714 338.764 271.714 338.764C271.714 338.764 292.497 319.493 287.125 337.635H320.999" stroke="#E0E0E0" stroke-width="0.5" stroke-linecap="round" stroke-linejoin="round"/>
<path d="M70.3647 350.78H50.7424C50.7424 350.78 43.2177 324.103 34.9973 323.159C26.777 322.216 43.4406 350.78 43.4406 350.78C43.4406 350.78 32.9444 336.551 21.0795 340.492C9.21467 344.433 35.2259 350.78 35.2259 350.78H1" stroke="#E0E0E0" stroke-width="0.5" stroke-linecap="round" stroke-linejoin="round"/>
<rect x="232" y="2" width="41" height="54" rx="2.228" fill="white"/>
<path d="M238 12H267" stroke="#E0E0E0" stroke-width="1.5" stroke-linecap="round" stroke-linejoin="round"/>
<path d="M238 19H267" stroke="#E0E0E0" stroke-width="1.5" stroke-linecap="round" stroke-linejoin="round"/>
<path d="M238 26.5H267" stroke="#E0E0E0" stroke-width="1.5" stroke-linecap="round" stroke-linejoin="round"/>
<path d="M238 33.5H267" stroke="#E0E0E0" stroke-width="1.5" stroke-linecap="round" stroke-linejoin="round"/>
<path d="M238 40.5H267" stroke="#E0E0E0" stroke-width="1.5" stroke-linecap="round" stroke-linejoin="round"/>
<rect x="63" y="10.7314" width="30.961" height="41.404" rx="2.228" fill="white"/>
<path d="M67.5156 18.4769H89.7691" stroke="#E0E0E0" stroke-width="1.5" stroke-linecap="round" stroke-linejoin="round"/>
<path d="M67.5156 24.2194H89.7691" stroke="#E0E0E0" stroke-width="1.5" stroke-linecap="round" stroke-linejoin="round"/>
<path d="M67.5156 29.9646H89.7691" stroke="#E0E0E0" stroke-width="1.5" stroke-linecap="round" stroke-linejoin="round"/>
<path d="M67.5156 35.7073H89.7691" stroke="#E0E0E0" stroke-width="1.5" stroke-linecap="round" stroke-linejoin="round"/>
<path d="M67.5156 41.4522H89.7691" stroke="#E0E0E0" stroke-width="1.5" stroke-linecap="round" stroke-linejoin="round"/>
<rect x="247.936" y="190.097" width="38.8578" height="57.2975" rx="3.364" fill="white" stroke="white" stroke-width="0.5" stroke-linecap="round" stroke-linejoin="round"/>
<ellipse cx="264.361" cy="218.544" rx="1.05062" ry="1.04388" fill="#E0E0E0"/>
<ellipse cx="255.254" cy="218.544" rx="1.05062" ry="1.04388" fill="#E0E0E0"/>
<ellipse cx="272.551" cy="218.544" rx="1.05062" ry="1.04388" fill="#E0E0E0"/>
<ellipse cx="280.742" cy="218.544" rx="1.05062" ry="1.04388" fill="#E0E0E0"/>
<path d="M95.1387 103.38C95.1387 103.38 98.6298 84.9713 101.762 77.1281C104.894 69.2849 105.737 63.727 113.036 60.5163C120.335 57.3057 125.553 55.3562 125.553 55.3562" stroke="#C4C4C4" stroke-width="0.5" stroke-linecap="round" stroke-linejoin="round"/>
<rect width="203.393" height="14.6928" transform="matrix(0.709378 0.704828 -0.709378 0.704828 28.709 48.4492)" fill="#0099FF"/>
<path d="M18.2852 58.8052L162.567 202.16" stroke="#0197FD" stroke-width="0.5" stroke-linecap="round" stroke-linejoin="round"/>
<rect x="82.7891" y="144.824" width="8.2403" height="205.956" fill="#E0E0E0"/>
<ellipse cx="88.1894" cy="137.999" rx="14.375" ry="14.2828" fill="#0099FF"/>
</svg>
