<svg width="173" height="173" viewBox="0 0 173 173" fill="none" xmlns="http://www.w3.org/2000/svg">
<path d="M86.2091 172.758C133.82 172.758 172.418 134.16 172.418 86.3792C172.418 38.5986 133.65 0 86.2091 0C38.5986 0 0 38.5986 0 86.3792C0 134.16 38.5986 172.758 86.2091 172.758Z" fill="#BBDFFF"/>
<path d="M78.2064 106C77.5984 106.001 76.9962 105.88 76.4344 105.643C75.8727 105.407 75.3624 105.061 74.933 104.624L61.3529 90.8401C60.4861 89.9586 59.9994 88.7639 60 87.5184C60.0006 86.273 60.4882 85.0787 61.3559 84.198C62.2235 83.3174 63.4001 82.8223 64.6271 82.8218C65.8541 82.8212 67.0312 83.3151 67.8996 84.195L78.2064 94.6562L104.097 68.3762C104.527 67.9399 105.038 67.5938 105.599 67.3577C106.161 67.1215 106.763 67 107.371 67C107.979 67 108.581 67.1215 109.142 67.3577C109.704 67.5938 110.214 67.9399 110.644 68.3762C111.074 68.8126 111.415 69.3305 111.648 69.9006C111.88 70.4707 112 71.0817 112 71.6988C112 72.3158 111.88 72.9268 111.648 73.4969C111.415 74.067 111.074 74.585 110.644 75.0213L81.4797 104.624C81.0503 105.061 80.5401 105.407 79.9783 105.643C79.4166 105.88 78.8144 106.001 78.2064 106Z" fill="black"/>
</svg>
